<svg width="42" height="43" viewBox="0 0 42 43" fill="none" xmlns="http://www.w3.org/2000/svg">
<path d="M32.6484 8.59814C32.8125 8.59814 32.9492 8.54346 33.0586 8.43408C33.168 8.32471 33.2227 8.18799 33.2227 8.02393C33.2227 7.88721 33.168 7.76416 33.0586 7.65479C32.9492 7.54541 32.8125 7.49072 32.6484 7.49072C32.5117 7.49072 32.3887 7.54541 32.2793 7.65479C32.1699 7.76416 32.1152 7.88721 32.1152 8.02393C32.1152 8.18799 32.1699 8.32471 32.2793 8.43408C32.3887 8.54346 32.5117 8.59814 32.6484 8.59814ZM32.6484 10.854C32.8125 10.854 32.9492 10.7993 33.0586 10.6899C33.168 10.5806 33.2227 10.4438 33.2227 10.2798C33.2227 10.1157 33.168 9.979 33.0586 9.86963C32.9492 9.76025 32.8125 9.70557 32.6484 9.70557C32.5117 9.70557 32.3887 9.76025 32.2793 9.86963C32.1699 9.979 32.1152 10.1157 32.1152 10.2798C32.1152 10.4438 32.1699 10.5806 32.2793 10.6899C32.3887 10.7993 32.5117 10.854 32.6484 10.854ZM39.9492 13.6431V8.02393C39.9492 7.2583 39.6758 6.60205 39.1289 6.05518C38.582 5.5083 37.9258 5.23486 37.1602 5.23486H33.2227V3.55322C33.2227 3.08838 33.0586 2.69189 32.7305 2.36377C32.4023 2.03564 32.0059 1.87158 31.541 1.87158H27.0703C26.6055 1.87158 26.209 2.03564 25.8809 2.36377C25.5527 2.69189 25.3887 3.08838 25.3887 3.55322V5.23486H4.4707C3.70508 5.23486 3.04883 5.5083 2.50195 6.05518C1.95508 6.60205 1.68164 7.2583 1.68164 8.02393V13.6431C1.68164 14.3267 1.89355 14.9214 2.31738 15.4272C2.74121 15.9331 3.28125 16.2544 3.9375 16.3911V26.686H2.25586C2.0918 26.686 1.95508 26.7407 1.8457 26.8501C1.73633 26.9595 1.68164 27.0962 1.68164 27.2603C1.68164 28.0259 1.88672 28.7231 2.29688 29.3521C2.70703 29.981 3.25391 30.4595 3.9375 30.7876V36.8169C3.28125 36.9536 2.74121 37.2817 2.31738 37.8013C1.89355 38.3208 1.68164 38.9087 1.68164 39.5649C1.68164 39.729 1.73633 39.8657 1.8457 39.9751C1.95508 40.0845 2.0918 40.1392 2.25586 40.1392H8.98242C9.11914 40.1392 9.24219 40.0845 9.35156 39.9751C9.46094 39.8657 9.51562 39.729 9.51562 39.5649C9.51562 38.9087 9.30371 38.3208 8.87988 37.8013C8.45605 37.2817 7.92969 36.9536 7.30078 36.8169V31.1567H29.2852C30.3789 31.1567 31.3086 30.7739 32.0742 30.0083C32.8398 29.2427 33.2227 28.3267 33.2227 27.2603V16.4321H34.3301V36.8169C33.7012 36.9536 33.1748 37.2817 32.751 37.8013C32.3271 38.3208 32.1152 38.9087 32.1152 39.5649C32.1152 39.729 32.1699 39.8657 32.2793 39.9751C32.3887 40.0845 32.5117 40.1392 32.6484 40.1392H39.375C39.5391 40.1392 39.6758 40.0845 39.7852 39.9751C39.8945 39.8657 39.9492 39.729 39.9492 39.5649C39.9492 38.9087 39.7373 38.3208 39.3135 37.8013C38.8896 37.2817 38.3496 36.9536 37.6934 36.8169V16.3911C38.3496 16.2544 38.8896 15.9331 39.3135 15.4272C39.7373 14.9214 39.9492 14.3267 39.9492 13.6431ZM35.4785 16.4321H36.5859V36.7759H35.4785V16.4321ZM26.4961 3.55322C26.4961 3.38916 26.5508 3.25244 26.6602 3.14307C26.7695 3.03369 26.9062 2.979 27.0703 2.979H31.541C31.7051 2.979 31.8418 3.03369 31.9512 3.14307C32.0605 3.25244 32.1152 3.38916 32.1152 3.55322V5.23486H26.4961V3.55322ZM7.30078 13.0688H8.4082V15.3247H7.30078V13.0688ZM6.72656 25.5786C6.89062 25.5786 7.02734 25.5239 7.13672 25.4146C7.24609 25.3052 7.30078 25.1685 7.30078 25.0044V16.4321H8.4082V26.686H5.04492V16.4321H6.15234V25.0044C6.15234 25.1685 6.20703 25.3052 6.31641 25.4146C6.42578 25.5239 6.5625 25.5786 6.72656 25.5786ZM2.78906 13.6431V8.02393C2.78906 7.55908 2.95312 7.1626 3.28125 6.83447C3.60938 6.50635 4.00586 6.34229 4.4707 6.34229H6.15234V15.3247H4.4707C4.00586 15.3247 3.60938 15.1606 3.28125 14.8325C2.95312 14.5044 2.78906 14.1079 2.78906 13.6431ZM8.32617 39.0317H2.91211C3.02148 38.7036 3.21973 38.4302 3.50684 38.2114C3.79395 37.9927 4.11523 37.8833 4.4707 37.8833H6.72656C7.08203 37.8833 7.40332 37.9927 7.69043 38.2114C7.97754 38.4302 8.18945 38.7036 8.32617 39.0317ZM5.04492 36.7759V31.1157C5.12695 31.1431 5.21582 31.1567 5.31152 31.1567C5.40723 31.1567 5.50977 31.1567 5.61914 31.1567H6.15234V36.7759H5.04492ZM5.61914 30.0493C4.93555 30.0493 4.33398 29.8374 3.81445 29.4136C3.29492 28.9897 2.98047 28.4497 2.87109 27.7935H25.4297C25.4844 28.231 25.6074 28.6411 25.7988 29.0239C25.9902 29.4067 26.2363 29.7485 26.5371 30.0493H5.61914ZM32.1152 27.2603C32.1152 28.0259 31.8418 28.6821 31.2949 29.229C30.748 29.7759 30.0781 30.0493 29.2852 30.0493C28.5195 30.0493 27.8633 29.7759 27.3164 29.229C26.7695 28.6821 26.4961 28.0259 26.4961 27.2603C26.4961 27.0962 26.4414 26.9595 26.332 26.8501C26.2227 26.7407 26.0859 26.686 25.9219 26.686H9.51562V13.0688H32.1152V27.2603ZM7.30078 11.9614V6.34229H34.3301V11.9614H7.30078ZM33.2227 15.3247V13.0688H34.3301V15.3247H33.2227ZM38.7188 39.0317H33.3047C33.4414 38.7036 33.6533 38.4302 33.9404 38.2114C34.2275 37.9927 34.5488 37.8833 34.9043 37.8833H37.1602C37.5156 37.8833 37.8369 37.9927 38.124 38.2114C38.4111 38.4302 38.6094 38.7036 38.7188 39.0317ZM37.1602 15.3247H35.4785V6.34229H37.1602C37.625 6.34229 38.0215 6.50635 38.3496 6.83447C38.6777 7.1626 38.8418 7.55908 38.8418 8.02393V13.6431C38.8418 14.1079 38.6777 14.5044 38.3496 14.8325C38.0215 15.1606 37.625 15.3247 37.1602 15.3247Z" fill="#FC487F"/>
</svg>