<svg width="18" height="20" viewBox="0 0 18 20" fill="none" xmlns="http://www.w3.org/2000/svg">
<g clip-path="url(#clip0_1_646)">
<path d="M13.7172 5.02866C13.7172 4.99155 13.7172 4.95134 13.7172 4.90805C13.7172 4.86476 13.7172 4.82455 13.7172 4.78745C13.7543 4.15659 13.643 3.57521 13.3832 3.0433C13.1358 2.49903 12.7895 2.03207 12.3441 1.64243C11.8988 1.25278 11.3855 0.946625 10.8041 0.723969C10.2227 0.501312 9.61661 0.389984 8.98575 0.389984C8.34252 0.389984 7.73022 0.507497 7.14884 0.742523C6.57983 0.965179 6.08194 1.27752 5.65518 1.67953C5.22843 2.08155 4.89135 2.54851 4.64395 3.08041C4.39656 3.61231 4.27286 4.18133 4.27286 4.78745V5.02866H2.95548C2.49779 5.02866 2.10196 5.174 1.76798 5.46469C1.43399 5.75538 1.24845 6.11101 1.21134 6.53159L0.357821 17.6458C0.345451 17.8809 0.379468 18.1035 0.459871 18.3138C0.540275 18.5241 0.660881 18.7096 0.821688 18.8705C0.982495 19.0313 1.17423 19.1581 1.39688 19.2508C1.61954 19.3436 1.85457 19.39 2.10196 19.39H15.8881C16.1355 19.39 16.3674 19.3436 16.5839 19.2508C16.8004 19.1581 16.9952 19.0313 17.1684 18.8705C17.3292 18.7096 17.4498 18.5241 17.5302 18.3138C17.6106 18.1035 17.6446 17.8809 17.6322 17.6458L16.7787 6.53159C16.7416 6.11101 16.5561 5.75538 16.2221 5.46469C15.8881 5.174 15.4923 5.02866 15.0346 5.02866H13.7172ZM4.27286 6.42026V9.88998C4.27286 10.0879 4.34399 10.2518 4.48624 10.3817C4.62849 10.5116 4.80476 10.5765 5.01505 10.5765C5.22533 10.5765 5.4016 10.5116 5.54386 10.3817C5.68611 10.2518 5.75723 10.0879 5.75723 9.88998V6.42026H12.2328V9.88998C12.2328 10.0879 12.3039 10.2518 12.4462 10.3817C12.5885 10.5116 12.7647 10.5765 12.975 10.5765C13.1853 10.5765 13.3616 10.5116 13.5038 10.3817C13.6461 10.2518 13.7172 10.0879 13.7172 9.88998C13.7172 9.88998 13.7079 9.54363 13.6894 8.85092C13.6708 8.15821 13.6677 7.34799 13.6801 6.42026H15.0346C15.0964 6.42026 15.1521 6.43881 15.2016 6.47592C15.2511 6.51303 15.2758 6.56251 15.2758 6.62436L16.1293 17.7572C16.1417 17.7819 16.1417 17.8097 16.1293 17.8407C16.1169 17.8716 16.0984 17.8994 16.0736 17.9242C16.0489 17.9489 16.0211 17.9675 15.9901 17.9798C15.9592 17.9922 15.9252 17.9984 15.8881 17.9984H2.10196C2.06485 17.9984 2.03083 17.9922 1.99991 17.9798C1.96899 17.9675 1.94115 17.9489 1.91641 17.9242C1.89167 17.8994 1.87312 17.8716 1.86075 17.8407C1.84838 17.8097 1.8422 17.7819 1.8422 17.7572L2.71427 6.62436C2.71427 6.56251 2.73901 6.51303 2.78848 6.47592C2.83796 6.43881 2.89363 6.42026 2.95548 6.42026H4.27286ZM5.75723 5.02866V4.78745C5.75723 3.95867 6.07266 3.2505 6.70352 2.66293C7.33438 2.07537 8.09513 1.78159 8.98575 1.78159C9.88875 1.78159 10.6557 2.07537 11.2865 2.66293C11.9174 3.2505 12.2328 3.95867 12.2328 4.78745V5.02866H5.75723Z" fill="#666666"/>
</g>
<defs>
<clipPath id="clip0_1_646">
<rect width="17.45" height="19" fill="white" transform="matrix(1 0 0 -1 0.27002 19.39)"/>
</clipPath>
</defs>
</svg>
