<svg width="42" height="43" viewBox="0 0 42 43" fill="none" xmlns="http://www.w3.org/2000/svg">
<path d="M29.2441 37.063C29.1348 37.063 29.0185 37.0562 28.8955 37.0425C28.7725 37.0288 28.6426 37.0083 28.5059 36.981L6.3164 30.9927C5.55078 30.7739 4.96972 30.3228 4.57324 29.6392C4.17676 28.9556 4.08789 28.2173 4.30664 27.4243L7.0957 16.9243C7.15039 16.7329 7.25976 16.5825 7.42383 16.4731C7.58789 16.3638 7.76562 16.3364 7.95703 16.3911C8.14844 16.4458 8.29883 16.562 8.4082 16.7397C8.51758 16.9175 8.54492 17.1021 8.49023 17.2935L5.70117 27.7935C5.59179 28.2036 5.63281 28.5796 5.82422 28.9214C6.01562 29.2632 6.30273 29.4888 6.68554 29.5981L28.875 35.5864C29.2578 35.6958 29.6201 35.6479 29.9619 35.4429C30.3037 35.2378 30.5293 34.9438 30.6387 34.561L31.7461 30.3774C31.8008 30.186 31.9102 30.0425 32.0742 29.9468C32.2383 29.8511 32.416 29.8169 32.6074 29.8442C32.8262 29.8989 32.9834 30.0151 33.0791 30.1929C33.1748 30.3706 33.1953 30.5552 33.1406 30.7466L32.0332 34.9302C31.8418 35.5864 31.4863 36.106 30.9668 36.4888C30.4473 36.8716 29.873 37.063 29.2441 37.063ZM35.7656 28.4087H12.7969C12.0039 28.4087 11.3271 28.1216 10.7666 27.5474C10.2061 26.9731 9.92578 26.2896 9.92578 25.4966V8.10596C9.92578 7.31299 10.2061 6.63623 10.7666 6.07568C11.3271 5.51514 12.0039 5.23486 12.7969 5.23486H35.7656C36.5586 5.23486 37.2353 5.51514 37.7959 6.07568C38.3564 6.63623 38.6367 7.31299 38.6367 8.10596V25.4966C38.6367 26.2896 38.3564 26.9731 37.7959 27.5474C37.2353 28.1216 36.5586 28.4087 35.7656 28.4087ZM12.7969 6.67041C12.4141 6.67041 12.0791 6.81396 11.792 7.10107C11.5049 7.38818 11.3613 7.72314 11.3613 8.10596V25.4966C11.3613 25.9067 11.5049 26.2485 11.792 26.522C12.0791 26.7954 12.4141 26.9321 12.7969 26.9321H35.7656C36.1758 26.9321 36.5176 26.7954 36.791 26.522C37.0644 26.2485 37.2012 25.9067 37.2012 25.4966V8.10596C37.2012 7.72314 37.0644 7.38818 36.791 7.10107C36.5176 6.81396 36.1758 6.67041 35.7656 6.67041H12.7969ZM17.1035 15.3657C16.3105 15.3657 15.6338 15.0854 15.0732 14.5249C14.5127 13.9644 14.2324 13.2739 14.2324 12.4536C14.2324 11.6606 14.5127 10.9839 15.0732 10.4233C15.6338 9.86279 16.3105 9.58252 17.1035 9.58252C17.8965 9.58252 18.5732 9.86279 19.1338 10.4233C19.6943 10.9839 19.9746 11.6606 19.9746 12.4536C19.9746 13.2739 19.6943 13.9644 19.1338 14.5249C18.5732 15.0854 17.8965 15.3657 17.1035 15.3657ZM17.1035 11.0181C16.7207 11.0181 16.3857 11.1616 16.0986 11.4487C15.8115 11.7358 15.668 12.0708 15.668 12.4536C15.668 12.8638 15.8115 13.2124 16.0986 13.4995C16.3857 13.7866 16.7207 13.9302 17.1035 13.9302C17.5137 13.9302 17.8555 13.7866 18.1289 13.4995C18.4023 13.2124 18.5391 12.8638 18.5391 12.4536C18.5391 12.0708 18.4023 11.7358 18.1289 11.4487C17.8555 11.1616 17.5137 11.0181 17.1035 11.0181ZM10.7461 26.8501C10.6641 26.8501 10.5752 26.8296 10.4795 26.7886C10.3838 26.7476 10.3086 26.6997 10.2539 26.645C10.1172 26.5083 10.0488 26.3374 10.0488 26.1323C10.0488 25.9272 10.1172 25.7563 10.2539 25.6196L17.0215 18.77C17.4316 18.3599 17.9375 18.1548 18.5391 18.1548C19.1406 18.1548 19.6465 18.3599 20.0566 18.77L22.1074 20.8208L27.6855 14.0532C27.8769 13.8071 28.1162 13.6157 28.4033 13.479C28.6904 13.3423 28.998 13.2739 29.3262 13.2739C29.6543 13.2739 29.9551 13.3354 30.2285 13.4585C30.5019 13.5815 30.748 13.7661 30.9668 14.0122L38.4727 22.8716C38.6094 23.0083 38.6641 23.1792 38.6367 23.3843C38.6094 23.5894 38.5273 23.7603 38.3906 23.897C38.2266 24.0063 38.0488 24.0542 37.8574 24.0405C37.666 24.0269 37.5019 23.9517 37.3652 23.8149L29.8594 14.9556C29.8047 14.8735 29.7295 14.812 29.6338 14.771C29.5381 14.73 29.4355 14.7095 29.3262 14.7095C29.2441 14.7095 29.1484 14.73 29.0391 14.771C28.9297 14.812 28.8477 14.8735 28.793 14.9556L22.6816 22.3384C22.6269 22.4204 22.5518 22.4819 22.4561 22.5229C22.3603 22.564 22.2578 22.5845 22.1484 22.5845C22.0664 22.6118 21.9775 22.605 21.8818 22.564C21.7861 22.5229 21.6973 22.4614 21.6152 22.3794L19.0723 19.7954C18.9355 19.6587 18.7646 19.5903 18.5596 19.5903C18.3545 19.5903 18.1836 19.6587 18.0469 19.7954L11.2793 26.645C11.1973 26.6997 11.1152 26.7476 11.0332 26.7886C10.9512 26.8296 10.8555 26.8501 10.7461 26.8501Z" fill="#FC487F"/>
</svg>