<svg width="20" height="18" viewBox="0 0 20 18" fill="none" xmlns="http://www.w3.org/2000/svg">
<g clip-path="url(#clip0_1_10)">
<path d="M11.3649 17.6133C11.1539 17.6133 10.9547 17.5488 10.7672 17.4199C10.5797 17.291 10.3981 17.1562 10.2223 17.0156C10.1051 16.9219 9.98207 16.8281 9.85316 16.7344C9.72426 16.6406 9.62465 16.5937 9.55434 16.5937C9.47231 16.5937 9.36684 16.6406 9.23793 16.7344C9.10902 16.8281 8.99184 16.9219 8.88637 17.0156C8.68715 17.1797 8.47621 17.332 8.25356 17.4727C8.0309 17.6133 7.79652 17.6543 7.55043 17.5957C7.29262 17.5371 7.09047 17.3936 6.94398 17.165C6.7975 16.9365 6.67152 16.7051 6.56606 16.4707C6.50746 16.3535 6.44301 16.2217 6.3727 16.0752C6.30238 15.9287 6.23207 15.8437 6.16176 15.8203C6.10316 15.7852 5.99477 15.7852 5.83656 15.8203C5.67836 15.8555 5.53481 15.8848 5.4059 15.9082C5.14809 15.9668 4.88734 16.0107 4.62367 16.04C4.36 16.0693 4.12856 16.0078 3.92934 15.8555C3.73012 15.6914 3.61293 15.4775 3.57777 15.2139C3.54262 14.9502 3.5309 14.6895 3.54262 14.4316C3.54262 14.291 3.53969 14.1387 3.53383 13.9746C3.52797 13.8105 3.5016 13.7051 3.45473 13.6582C3.41957 13.5996 3.32289 13.5498 3.16469 13.5088C3.00648 13.4678 2.86293 13.4355 2.73402 13.4121C2.47621 13.3652 2.22133 13.2949 1.96938 13.2012C1.71742 13.1074 1.53871 12.9434 1.43324 12.709C1.31606 12.4863 1.30141 12.249 1.3893 11.9971C1.47719 11.7451 1.57973 11.502 1.69691 11.2676C1.75551 11.1504 1.81703 11.0156 1.88148 10.8633C1.94594 10.7109 1.97231 10.5996 1.96059 10.5293C1.94887 10.4707 1.88148 10.3916 1.75844 10.292C1.63539 10.1924 1.52113 10.1016 1.41566 10.0195C1.21645 9.85547 1.02016 9.67676 0.826797 9.4834C0.633438 9.29004 0.536758 9.06445 0.536758 8.80664C0.536758 8.54883 0.633438 8.32324 0.826797 8.12988C1.02016 7.93652 1.21645 7.75781 1.41566 7.59375C1.52113 7.51172 1.63539 7.4209 1.75844 7.32129C1.88148 7.22168 1.94887 7.13672 1.96059 7.0664C1.97231 7.00781 1.94594 6.90234 1.88148 6.75C1.81703 6.59765 1.75551 6.45703 1.69691 6.32812C1.57973 6.10547 1.47719 5.86816 1.3893 5.61621C1.30141 5.36426 1.31606 5.12695 1.43324 4.9043C1.53871 4.66992 1.71742 4.50586 1.96938 4.41211C2.22133 4.31836 2.47621 4.24805 2.73402 4.20117C2.86293 4.16601 3.00648 4.12793 3.16469 4.08691C3.32289 4.0459 3.41957 4.00195 3.45473 3.95508C3.5016 3.89648 3.52797 3.78808 3.53383 3.62988C3.53969 3.47168 3.54262 3.32226 3.54262 3.18164C3.54262 2.92383 3.55727 2.66308 3.58656 2.39941C3.61586 2.13574 3.73012 1.92187 3.92934 1.75781C4.12856 1.60547 4.36 1.54394 4.62367 1.57324C4.88734 1.60254 5.14809 1.64648 5.4059 1.70508C5.53481 1.72851 5.67836 1.75781 5.83656 1.79297C5.99477 1.82812 6.10902 1.82812 6.17934 1.79297C6.23793 1.76953 6.30238 1.68457 6.3727 1.53808C6.44301 1.3916 6.50746 1.25976 6.56606 1.14258C6.67152 0.908201 6.7975 0.676756 6.94398 0.448241C7.09047 0.219725 7.29262 0.0761702 7.55043 0.0175765C7.79652 -0.0410173 8.0309 -1.66893e-06 8.25356 0.140623C8.47621 0.281248 8.68715 0.433592 8.88637 0.597655C8.99184 0.691405 9.10902 0.785155 9.23793 0.878905C9.36684 0.972655 9.47231 1.01953 9.55434 1.01953C9.62465 1.01953 9.72426 0.972655 9.85316 0.878905C9.98207 0.785155 10.1051 0.691405 10.2223 0.597655C10.4215 0.433592 10.6325 0.281248 10.8551 0.140623C11.0778 -1.66893e-06 11.3121 -0.0410173 11.5582 0.0175765C11.8043 0.0761702 12.0006 0.219725 12.1471 0.448241C12.2936 0.676756 12.4196 0.908201 12.525 1.14258C12.5836 1.25976 12.651 1.3916 12.7272 1.53808C12.8034 1.68457 12.8707 1.76953 12.9293 1.79297C12.9879 1.82812 13.0993 1.82812 13.2633 1.79297C13.4274 1.75781 13.5739 1.72851 13.7028 1.70508C13.9489 1.64648 14.2038 1.60254 14.4674 1.57324C14.7311 1.54394 14.9625 1.60547 15.1618 1.75781C15.3727 1.92187 15.4928 2.13574 15.5221 2.39941C15.5514 2.66308 15.5602 2.92383 15.5485 3.18164C15.5485 3.32226 15.5514 3.47168 15.5573 3.62988C15.5631 3.78808 15.5895 3.89648 15.6364 3.95508C15.6715 4.00195 15.7682 4.0459 15.9264 4.08691C16.0846 4.12793 16.2282 4.16601 16.3571 4.20117C16.6149 4.24805 16.8698 4.31836 17.1217 4.41211C17.3737 4.50586 17.5582 4.66992 17.6754 4.9043C17.7809 5.12695 17.7897 5.36426 17.7018 5.61621C17.6139 5.86816 17.5114 6.11133 17.3942 6.3457C17.3356 6.46289 17.2741 6.59765 17.2096 6.75C17.1452 6.90234 17.1188 7.00781 17.1305 7.0664C17.1539 7.13672 17.2243 7.22168 17.3414 7.32129C17.4586 7.4209 17.57 7.51172 17.6754 7.59375C17.8864 7.75781 18.0856 7.93652 18.2731 8.12988C18.4606 8.32324 18.5543 8.54883 18.5543 8.80664C18.5543 9.06445 18.4606 9.29004 18.2731 9.4834C18.0856 9.67676 17.8864 9.85547 17.6754 10.0195C17.57 10.1016 17.4586 10.1924 17.3414 10.292C17.2243 10.3916 17.1539 10.4766 17.1305 10.5469C17.1188 10.6055 17.1452 10.7109 17.2096 10.8633C17.2741 11.0156 17.3356 11.1504 17.3942 11.2676C17.5114 11.502 17.6139 11.7451 17.7018 11.9971C17.7897 12.249 17.7809 12.4863 17.6754 12.709C17.5582 12.9434 17.3737 13.1074 17.1217 13.2012C16.8698 13.2949 16.6149 13.3652 16.3571 13.4121C16.2282 13.4473 16.0846 13.4853 15.9264 13.5264C15.7682 13.5674 15.6715 13.6113 15.6364 13.6582C15.5895 13.7051 15.5631 13.8105 15.5573 13.9746C15.5514 14.1387 15.5485 14.291 15.5485 14.4316C15.5602 14.6895 15.5485 14.9502 15.5133 15.2139C15.4782 15.4775 15.361 15.6914 15.1618 15.8555C14.9625 16.0078 14.7311 16.0693 14.4674 16.04C14.2038 16.0107 13.9489 15.9668 13.7028 15.9082C13.5739 15.8848 13.4274 15.8555 13.2633 15.8203C13.0993 15.7852 12.9879 15.7852 12.9293 15.8203C12.8707 15.8437 12.8034 15.9287 12.7272 16.0752C12.651 16.2217 12.5836 16.3535 12.525 16.4707C12.4196 16.7051 12.2936 16.9365 12.1471 17.165C12.0006 17.3936 11.8043 17.5371 11.5582 17.5957C11.5231 17.5957 11.4909 17.5986 11.4616 17.6045C11.4323 17.6103 11.4 17.6133 11.3649 17.6133ZM6.03871 14.9766C6.13246 14.9766 6.21742 14.9853 6.29359 15.0029C6.36977 15.0205 6.44887 15.0469 6.5309 15.082C6.7184 15.1758 6.87074 15.3193 6.98793 15.5127C7.10512 15.7061 7.21059 15.9082 7.30434 16.1191C7.35121 16.2246 7.41859 16.3594 7.50648 16.5234C7.59438 16.6875 7.66762 16.7754 7.72621 16.7871C7.78481 16.7988 7.88441 16.752 8.02504 16.6465C8.16566 16.541 8.27699 16.4531 8.35902 16.3828C8.54652 16.2305 8.73695 16.0898 8.93031 15.9609C9.12367 15.832 9.33168 15.7676 9.55434 15.7676C9.76527 15.7676 9.96742 15.832 10.1608 15.9609C10.3541 16.0898 10.5446 16.2305 10.7321 16.3828C10.8141 16.4531 10.9254 16.541 11.0661 16.6465C11.2067 16.752 11.3063 16.7988 11.3649 16.7871C11.4235 16.7754 11.4967 16.6875 11.5846 16.5234C11.6725 16.3594 11.7399 16.2246 11.7868 16.1191C11.8805 15.9082 11.986 15.7061 12.1032 15.5127C12.2204 15.3193 12.3727 15.1758 12.5602 15.082C12.7594 14.9883 12.9733 14.9561 13.2018 14.9853C13.4303 15.0146 13.6559 15.0586 13.8786 15.1172C13.9957 15.1406 14.1422 15.1699 14.318 15.2051C14.4938 15.2402 14.6051 15.2402 14.652 15.2051C14.6989 15.1699 14.7252 15.0615 14.7311 14.8799C14.737 14.6982 14.7399 14.5488 14.7399 14.4316C14.7282 14.1973 14.734 13.9658 14.7575 13.7373C14.7809 13.5088 14.8571 13.3125 14.986 13.1484C15.1266 12.9844 15.3053 12.8672 15.5221 12.7969C15.7389 12.7266 15.9586 12.668 16.1813 12.6211C16.2985 12.5977 16.445 12.5625 16.6207 12.5156C16.7965 12.4687 16.902 12.416 16.9371 12.3574C16.9606 12.3105 16.9342 12.2051 16.858 12.041C16.7819 11.877 16.7204 11.7422 16.6735 11.6367C16.568 11.4258 16.4743 11.2119 16.3922 10.9951C16.3102 10.7783 16.2926 10.5645 16.3395 10.3535C16.3864 10.1543 16.4918 9.97558 16.6559 9.81738C16.82 9.65918 16.9899 9.50976 17.1657 9.36914C17.2711 9.28711 17.3942 9.1875 17.5348 9.07031C17.6754 8.95312 17.7457 8.86523 17.7457 8.80664C17.7457 8.74805 17.6754 8.65722 17.5348 8.53418C17.3942 8.41113 17.2711 8.31445 17.1657 8.24414C16.9899 8.10351 16.82 7.9541 16.6559 7.7959C16.4918 7.63769 16.3864 7.45898 16.3395 7.25976C16.2926 7.04883 16.3102 6.83496 16.3922 6.61816C16.4743 6.40137 16.568 6.1875 16.6735 5.97656C16.7204 5.87109 16.7819 5.73633 16.858 5.57226C16.9342 5.4082 16.9606 5.30273 16.9371 5.25586C16.902 5.19726 16.7965 5.14453 16.6207 5.09765C16.445 5.05078 16.2985 5.01562 16.1813 4.99219C15.9586 4.94531 15.7389 4.88672 15.5221 4.8164C15.3053 4.74609 15.1266 4.6289 14.986 4.46484C14.8571 4.30078 14.7838 4.10449 14.7663 3.87597C14.7487 3.64746 14.7399 3.41601 14.7399 3.18164C14.7399 3.06445 14.737 2.91504 14.7311 2.7334C14.7252 2.55176 14.6989 2.44336 14.652 2.4082C14.6051 2.37305 14.4938 2.37305 14.318 2.4082C14.1422 2.44336 14.0016 2.47265 13.8961 2.49609C13.6618 2.55469 13.4303 2.59863 13.2018 2.62793C12.9733 2.65722 12.7594 2.625 12.5602 2.53125C12.3727 2.4375 12.2204 2.29394 12.1032 2.10058C11.986 1.90722 11.8805 1.70508 11.7868 1.49414C11.7399 1.38867 11.6725 1.2539 11.5846 1.08984C11.4967 0.92578 11.4235 0.837889 11.3649 0.82617C11.3063 0.814451 11.2067 0.861326 11.0661 0.966795C10.9254 1.07226 10.8141 1.16015 10.7321 1.23047C10.5446 1.38281 10.3541 1.52344 10.1608 1.65234C9.96742 1.78125 9.76527 1.8457 9.55434 1.8457C9.33168 1.8457 9.12367 1.78125 8.93031 1.65234C8.73695 1.52344 8.54652 1.38281 8.35902 1.23047C8.27699 1.16015 8.16566 1.07226 8.02504 0.966795C7.88441 0.861326 7.78481 0.814451 7.72621 0.82617C7.66762 0.837889 7.59438 0.92578 7.50648 1.08984C7.41859 1.2539 7.35121 1.38867 7.30434 1.49414C7.21059 1.70508 7.10512 1.90722 6.98793 2.10058C6.87074 2.29394 6.7184 2.4375 6.5309 2.53125C6.33168 2.625 6.11781 2.65722 5.8893 2.62793C5.66078 2.59863 5.4352 2.55469 5.21254 2.49609C5.09535 2.47265 4.94887 2.44336 4.77309 2.4082C4.59731 2.37305 4.48598 2.37305 4.4391 2.4082C4.39223 2.44336 4.36586 2.55176 4.36 2.7334C4.35414 2.91504 4.35121 3.06445 4.35121 3.18164C4.36293 3.41601 4.35707 3.64746 4.33363 3.87597C4.3102 4.10449 4.23402 4.30078 4.10512 4.46484C3.97621 4.6289 3.80043 4.74609 3.57777 4.8164C3.35512 4.88672 3.13246 4.94531 2.90981 4.99219C2.79262 5.01562 2.64613 5.05078 2.47035 5.09765C2.29457 5.14453 2.19496 5.19726 2.17152 5.25586C2.14809 5.30273 2.17152 5.4082 2.24184 5.57226C2.31215 5.73633 2.3766 5.87109 2.4352 5.97656C2.52895 6.1875 2.61684 6.40137 2.69887 6.61816C2.7809 6.83496 2.79848 7.04883 2.7516 7.25976C2.70473 7.45898 2.59926 7.63769 2.4352 7.7959C2.27113 7.9541 2.10121 8.10351 1.92543 8.24414C1.81996 8.31445 1.69984 8.41113 1.56508 8.53418C1.43031 8.65722 1.36293 8.74805 1.36293 8.80664C1.36293 8.86523 1.43031 8.95312 1.56508 9.07031C1.69984 9.1875 1.81996 9.28711 1.92543 9.36914C2.10121 9.50976 2.27113 9.65918 2.4352 9.81738C2.59926 9.97558 2.70473 10.1543 2.7516 10.3535C2.79848 10.5645 2.7809 10.7783 2.69887 10.9951C2.61684 11.2119 2.52895 11.4258 2.4352 11.6367C2.3766 11.7422 2.31215 11.877 2.24184 12.041C2.17152 12.2051 2.14809 12.3105 2.17152 12.3574C2.19496 12.416 2.29457 12.4687 2.47035 12.5156C2.64613 12.5625 2.79262 12.5977 2.90981 12.6211C3.13246 12.668 3.35512 12.7266 3.57777 12.7969C3.80043 12.8672 3.97621 12.9844 4.10512 13.1484C4.23402 13.3125 4.3102 13.5088 4.33363 13.7373C4.35707 13.9658 4.36293 14.1973 4.35121 14.4316C4.35121 14.5488 4.35414 14.6982 4.36 14.8799C4.36586 15.0615 4.39223 15.1699 4.4391 15.2051C4.48598 15.2402 4.59731 15.2402 4.77309 15.2051C4.94887 15.1699 5.09535 15.1406 5.21254 15.1172C5.35316 15.082 5.49379 15.0498 5.63441 15.0205C5.77504 14.9912 5.90981 14.9766 6.03871 14.9766ZM6.97035 11.9707L12.7008 6.22265C12.736 6.1875 12.7653 6.14648 12.7887 6.09961C12.8121 6.05273 12.8239 6 12.8239 5.9414C12.8239 5.82422 12.7829 5.72754 12.7008 5.65137C12.6188 5.57519 12.525 5.53711 12.4196 5.53711C12.361 5.53711 12.3053 5.5459 12.2526 5.56347C12.1998 5.58105 12.1559 5.60742 12.1207 5.64258L6.39027 11.3906C6.35512 11.4258 6.32582 11.4668 6.30238 11.5137C6.27895 11.5605 6.26723 11.6133 6.26723 11.6719C6.26723 11.7891 6.30824 11.8857 6.39027 11.9619C6.47231 12.0381 6.57191 12.0762 6.6891 12.0762C6.73598 12.0762 6.78578 12.0674 6.83852 12.0498C6.89125 12.0322 6.9352 12.0059 6.97035 11.9707ZM7.4977 8.1914C7.09926 8.1914 6.76234 8.05078 6.48695 7.76953C6.21156 7.48828 6.07387 7.14844 6.07387 6.75C6.07387 6.36328 6.21449 6.03515 6.49574 5.76562C6.77699 5.49609 7.11098 5.36133 7.4977 5.36133C7.88441 5.36133 8.2184 5.49609 8.49965 5.76562C8.7809 6.03515 8.92738 6.36328 8.9391 6.75C8.9391 7.14844 8.79848 7.48828 8.51723 7.76953C8.23598 8.05078 7.89613 8.1914 7.4977 8.1914ZM7.4977 6.15234C7.33363 6.15234 7.19008 6.21094 7.06703 6.32812C6.94398 6.44531 6.88246 6.5918 6.88246 6.76758C6.88246 6.93164 6.94398 7.07519 7.06703 7.19824C7.19008 7.32129 7.33363 7.38281 7.4977 7.38281C7.67348 7.38281 7.81996 7.32129 7.93715 7.19824C8.05434 7.07519 8.11293 6.93164 8.11293 6.76758C8.11293 6.5918 8.05434 6.44531 7.93715 6.32812C7.81996 6.21094 7.67348 6.15234 7.4977 6.15234ZM11.5934 12.2871C11.195 12.2871 10.858 12.1465 10.5827 11.8652C10.3073 11.584 10.1696 11.2441 10.1696 10.8457C10.1696 10.459 10.3073 10.125 10.5827 9.84375C10.858 9.5625 11.195 9.42187 11.5934 9.42187C11.9918 9.42187 12.3317 9.5625 12.6129 9.84375C12.8942 10.125 13.0348 10.459 13.0348 10.8457C13.0348 11.2441 12.8942 11.584 12.6129 11.8652C12.3317 12.1465 11.9918 12.2871 11.5934 12.2871ZM11.5934 10.248C11.4293 10.248 11.2858 10.3066 11.1627 10.4238C11.0397 10.541 10.9782 10.6816 10.9782 10.8457C10.9782 11.0215 11.0397 11.168 11.1627 11.2852C11.2858 11.4023 11.4293 11.4609 11.5934 11.4609C11.7692 11.4609 11.9157 11.4023 12.0329 11.2852C12.15 11.168 12.2086 11.0215 12.2086 10.8457C12.2086 10.6816 12.15 10.541 12.0329 10.4238C11.9157 10.3066 11.7692 10.248 11.5934 10.248Z" fill="black"/>
</g>
<defs>
<clipPath id="clip0_1_10">
<rect width="19.59" height="18" fill="white" transform="matrix(1 0 0 -1 0.190002 18)"/>
</clipPath>
</defs>
</svg>