<svg width="42" height="43" viewBox="0 0 42 43" fill="none" xmlns="http://www.w3.org/2000/svg">
<g clip-path="url(#clip0_1_106)">
<path d="M34.8633 32.2231C34.7266 32.2231 34.6104 32.2983 34.5146 32.4487C34.4189 32.5991 34.3711 32.7837 34.3711 33.0024C34.3711 33.1938 34.4189 33.3647 34.5146 33.5151C34.6104 33.6655 34.7266 33.7407 34.8633 33.7407C35 33.7407 35.1162 33.6655 35.2119 33.5151C35.3076 33.3647 35.3555 33.1938 35.3555 33.0024C35.3555 32.7837 35.3076 32.5991 35.2119 32.4487C35.1162 32.2983 35 32.2231 34.8633 32.2231ZM13.5762 32.2231C13.3574 32.2231 13.1797 32.2983 13.043 32.4487C12.9063 32.5991 12.8379 32.7837 12.8379 33.0024C12.8379 33.1938 12.9063 33.3647 13.043 33.5151C13.1797 33.6655 13.3574 33.7407 13.5762 33.7407C13.7949 33.7407 13.9795 33.6655 14.1299 33.5151C14.2803 33.3647 14.3555 33.1938 14.3555 33.0024C14.3555 32.7837 14.2803 32.5991 14.1299 32.4487C13.9795 32.2983 13.7949 32.2231 13.5762 32.2231ZM41.3848 25.0454L39.293 23.5688V17.3345C39.293 16.8423 39.1289 16.439 38.8008 16.1245C38.4727 15.8101 38.0625 15.6528 37.5703 15.6528H32.5664C32.5938 15.4888 32.5938 15.3247 32.5664 15.1606C32.5391 14.9966 32.4707 14.8462 32.3613 14.7095C32.252 14.5728 32.1152 14.4634 31.9512 14.3813C31.7871 14.2993 31.6094 14.2583 31.418 14.2583H26.9062C26.7422 14.2583 26.5986 14.3267 26.4756 14.4634C26.3525 14.6001 26.291 14.7505 26.291 14.9146C26.291 15.106 26.3525 15.2632 26.4756 15.3862C26.5986 15.5093 26.7422 15.5708 26.9062 15.5708H31.2539L26.8242 32.2642H17.0215C17.0215 31.936 16.9805 31.6216 16.8984 31.3208C16.8164 31.02 16.6797 30.7466 16.4883 30.5005C16.2422 30.1724 15.9277 29.9194 15.5449 29.7417C15.1621 29.564 14.7383 29.4751 14.2734 29.4751C13.4258 29.4751 12.6328 29.7417 11.8945 30.2749C11.1562 30.8081 10.623 31.4712 10.2949 32.2642H7.46484L8.73633 27.5474C8.79102 27.356 8.77051 27.1851 8.6748 27.0347C8.5791 26.8843 8.44922 26.7817 8.28516 26.7271C8.12109 26.6997 7.95703 26.7271 7.79297 26.8091C7.62891 26.8911 7.5332 27.0278 7.50586 27.2192L6.19336 32.0591C6.13867 32.2505 6.13184 32.4351 6.17285 32.6128C6.21387 32.7905 6.28906 32.9478 6.39844 33.0845C6.50781 33.2485 6.64453 33.3647 6.80859 33.4331C6.97266 33.5015 7.15039 33.5356 7.3418 33.5356H10.0488C10.0215 33.8638 10.0557 34.1782 10.1514 34.479C10.2471 34.7798 10.3906 35.0532 10.582 35.2993C10.8281 35.6274 11.1426 35.8804 11.5254 36.0581C11.9082 36.2358 12.332 36.3247 12.7969 36.3247C13.6172 36.3247 14.3965 36.0581 15.1348 35.5249C15.873 34.9917 16.4062 34.3286 16.7344 33.5356H31.377C31.377 33.8638 31.4248 34.1782 31.5205 34.479C31.6162 34.7798 31.7461 35.0532 31.9102 35.2993C32.1836 35.6274 32.5117 35.8804 32.8945 36.0581C33.2773 36.2358 33.7012 36.3247 34.166 36.3247C34.9863 36.3247 35.7656 36.0581 36.5039 35.5249C37.2422 34.9917 37.7754 34.3286 38.1035 33.5356H38.3496C38.8691 33.5356 39.3545 33.3579 39.8057 33.0024C40.2568 32.647 40.5508 32.2095 40.6875 31.6899L41.959 26.9321C42.0684 26.5493 42.0684 26.1938 41.959 25.8657C41.8496 25.5376 41.6582 25.2642 41.3848 25.0454ZM15.668 32.7563C15.5039 33.3579 15.1348 33.8843 14.5605 34.3354C13.9863 34.7866 13.3984 35.0122 12.7969 35.0122C12.5234 35.0122 12.2842 34.9712 12.0791 34.8892C11.874 34.8071 11.7168 34.6841 11.6074 34.52C11.4707 34.3286 11.3818 34.1099 11.3408 33.8638C11.2998 33.6177 11.3203 33.3579 11.4023 33.0845C11.5664 32.4556 11.9287 31.9155 12.4893 31.4644C13.0498 31.0132 13.6445 30.7876 14.2734 30.7876C14.5195 30.7876 14.7451 30.8354 14.9502 30.9312C15.1553 31.0269 15.3262 31.1567 15.4629 31.3208C15.5996 31.4849 15.6885 31.6899 15.7295 31.936C15.7705 32.1821 15.75 32.4556 15.668 32.7563ZM38.0215 23.2817H33.8379C33.7832 23.2817 33.7217 23.2681 33.6533 23.2407C33.585 23.2134 33.5371 23.1724 33.5098 23.1177C33.4551 23.0903 33.4277 23.0356 33.4277 22.9536C33.4277 22.8716 33.4414 22.7896 33.4688 22.7075L34.002 20.6157C34.084 20.3696 34.2344 20.1577 34.4531 19.98C34.6719 19.8022 34.9043 19.7134 35.1504 19.7134H37.9805L38.0215 23.2817ZM37.0371 32.7563C36.873 33.3579 36.5039 33.8843 35.9297 34.3354C35.3555 34.7866 34.7676 35.0122 34.166 35.0122C33.8926 35.0122 33.6533 34.9712 33.4482 34.8892C33.2432 34.8071 33.0723 34.6841 32.9355 34.52C32.7988 34.3286 32.7168 34.1099 32.6895 33.8638C32.6621 33.6177 32.6895 33.3579 32.7715 33.0845C32.9355 32.4556 33.2979 31.9155 33.8584 31.4644C34.4189 31.0132 35.0137 30.7876 35.6426 30.7876C35.8887 30.7876 36.1143 30.8354 36.3193 30.9312C36.5244 31.0269 36.6953 31.1567 36.832 31.3208C36.9687 31.4849 37.0508 31.6899 37.0781 31.936C37.1055 32.1821 37.0918 32.4556 37.0371 32.7563ZM39.457 31.3618C39.4023 31.5806 39.2656 31.7788 39.0469 31.9565C38.8281 32.1343 38.6094 32.2368 38.3906 32.2642C38.3906 31.936 38.3428 31.6216 38.2471 31.3208C38.1514 31.02 38.0215 30.7466 37.8574 30.5005C37.584 30.1724 37.2559 29.9194 36.873 29.7417C36.4902 29.564 36.0801 29.4751 35.6426 29.4751C34.7949 29.4751 34.002 29.7417 33.2637 30.2749C32.5254 30.8081 31.9922 31.4712 31.6641 32.2642H28.1367L29.2852 27.9985H37.0371C37.2285 27.9985 37.3857 27.937 37.5088 27.814C37.6318 27.6909 37.6934 27.5474 37.6934 27.3833C37.6934 27.1919 37.6318 27.0347 37.5088 26.9116C37.3857 26.7886 37.2285 26.7271 37.0371 26.7271H29.6133L32.2383 16.9653H37.5703C37.6797 16.9653 37.7754 16.9858 37.8574 17.0269C37.9395 17.0679 37.9805 17.1704 37.9805 17.3345V18.4419H35.1504C34.6035 18.4419 34.1045 18.6196 33.6533 18.9751C33.2021 19.3306 32.9082 19.7681 32.7715 20.2876L32.1973 22.3794C32.1426 22.6528 32.1357 22.9263 32.1768 23.1997C32.2178 23.4731 32.3203 23.7192 32.4844 23.938C32.6484 24.1294 32.8467 24.2798 33.0791 24.3892C33.3115 24.4985 33.5645 24.5532 33.8379 24.5532H38.4727L40.6055 26.1118C40.7148 26.1665 40.7627 26.2485 40.749 26.3579C40.7354 26.4673 40.7285 26.5493 40.7285 26.604L40.6875 26.7271H39.8262C39.6348 26.7271 39.4775 26.7886 39.3545 26.9116C39.2314 27.0347 39.1699 27.1919 39.1699 27.3833C39.1699 27.5474 39.2314 27.6909 39.3545 27.814C39.4775 27.937 39.6348 27.9985 39.8262 27.9985H40.3594L39.457 31.3618ZM14.3555 26.563C15.7773 26.563 17.1035 26.3032 18.334 25.7837C19.5918 25.2368 20.6855 24.4985 21.6152 23.5688C22.5449 22.6392 23.2695 21.5591 23.7891 20.3286C24.3359 19.0708 24.6094 17.731 24.6094 16.3091C24.6094 14.9146 24.3359 13.5884 23.7891 12.3306C23.2695 11.1001 22.5449 10.02 21.6152 9.09033C20.6855 8.16064 19.5918 7.42236 18.334 6.87549C17.1035 6.32861 15.7773 6.05518 14.3555 6.05518C12.9336 6.05518 11.6074 6.32861 10.377 6.87549C9.11914 7.42236 8.02539 8.16064 7.0957 9.09033C6.16602 10.02 5.44141 11.1001 4.92188 12.3306C4.375 13.5884 4.10156 14.9146 4.10156 16.3091C4.10156 17.731 4.375 19.0708 4.92188 20.3286C5.44141 21.5591 6.16602 22.6392 7.0957 23.5688C8.02539 24.4985 9.11914 25.2368 10.377 25.7837C11.6074 26.3032 12.9336 26.563 14.3555 26.563ZM14.3555 7.36768C15.5859 7.36768 16.748 7.6001 17.8418 8.06494C18.9355 8.52979 19.8857 9.17236 20.6924 9.99268C21.499 10.813 22.1348 11.7563 22.5996 12.8228C23.0918 13.9165 23.3379 15.0786 23.3379 16.3091C23.3379 17.5669 23.0918 18.729 22.5996 19.7954C22.1348 20.8892 21.499 21.8462 20.6924 22.6665C19.8857 23.4868 18.9355 24.1294 17.8418 24.5942C16.748 25.0591 15.5859 25.2915 14.3555 25.2915C13.125 25.2915 11.9629 25.0591 10.8691 24.5942C9.77539 24.1294 8.8252 23.4868 8.01855 22.6665C7.21191 21.8462 6.57617 20.8892 6.11133 19.7954C5.61914 18.729 5.37305 17.5669 5.37305 16.3091C5.37305 15.0786 5.61914 13.9165 6.11133 12.8228C6.57617 11.7563 7.21191 10.813 8.01855 9.99268C8.8252 9.17236 9.77539 8.52979 10.8691 8.06494C11.9629 7.6001 13.125 7.36768 14.3555 7.36768ZM11.8945 19.9185C11.9766 19.9185 12.0586 19.8979 12.1406 19.8569C12.2227 19.8159 12.291 19.7681 12.3457 19.7134L13.7402 18.2778C13.877 18.3325 14.0205 18.3804 14.1709 18.4214C14.3213 18.4624 14.4648 18.4829 14.6016 18.4829C15.1758 18.4829 15.6543 18.2778 16.0371 17.8677C16.4199 17.4575 16.6113 16.9653 16.6113 16.3911C16.6113 16.1997 16.5908 16.0288 16.5498 15.8784C16.5088 15.728 16.4609 15.5845 16.4062 15.4478L19.8105 11.8384C19.9473 11.7017 20.0156 11.5376 20.0156 11.3462C20.0156 11.1548 19.9473 11.0044 19.8105 10.895C19.6738 10.7583 19.5234 10.6899 19.3594 10.6899C19.1953 10.6899 19.0449 10.7583 18.9082 10.895L15.5039 14.5044C15.3672 14.4224 15.2236 14.3608 15.0732 14.3198C14.9229 14.2788 14.7656 14.2583 14.6016 14.2583C14.0547 14.2583 13.5898 14.4634 13.207 14.8735C12.8242 15.2837 12.6328 15.7896 12.6328 16.3911C12.6328 16.5552 12.6533 16.7124 12.6943 16.8628C12.7354 17.0132 12.7832 17.1567 12.8379 17.2935L11.4844 18.77C11.3477 18.9067 11.2793 19.064 11.2793 19.2417C11.2793 19.4194 11.3477 19.5767 11.4844 19.7134C11.5391 19.7681 11.6006 19.8159 11.6689 19.8569C11.7373 19.8979 11.8125 19.9185 11.8945 19.9185ZM14.6016 15.6118C14.8203 15.6118 14.998 15.687 15.1348 15.8374C15.2715 15.9878 15.3398 16.1724 15.3398 16.3911C15.3398 16.5825 15.2715 16.7534 15.1348 16.9038C14.998 17.0542 14.8203 17.1294 14.6016 17.1294C14.4102 17.1294 14.2461 17.0542 14.1094 16.9038C13.9727 16.7534 13.9043 16.5825 13.9043 16.3911C13.9043 16.1724 13.9727 15.9878 14.1094 15.8374C14.2461 15.687 14.4102 15.6118 14.6016 15.6118ZM14.3555 10.6899C14.4922 10.6899 14.6084 10.6216 14.7041 10.4849C14.7998 10.3481 14.8477 10.1978 14.8477 10.0337V9.29541C14.8477 9.104 14.7998 8.94678 14.7041 8.82373C14.6084 8.70068 14.4922 8.63916 14.3555 8.63916C14.2188 8.63916 14.1025 8.70068 14.0068 8.82373C13.9111 8.94678 13.8633 9.104 13.8633 9.29541V10.0337C13.8633 10.1978 13.9111 10.3481 14.0068 10.4849C14.1025 10.6216 14.2188 10.6899 14.3555 10.6899ZM14.3555 21.9692C14.2188 21.9692 14.1025 22.0308 14.0068 22.1538C13.9111 22.2769 13.8633 22.4341 13.8633 22.6255V23.3638C13.8633 23.5278 13.9111 23.6782 14.0068 23.8149C14.1025 23.9517 14.2188 24.02 14.3555 24.02C14.4922 24.02 14.6084 23.9517 14.7041 23.8149C14.7998 23.6782 14.8477 23.5278 14.8477 23.3638V22.6255C14.8477 22.4341 14.7998 22.2769 14.7041 22.1538C14.6084 22.0308 14.4922 21.9692 14.3555 21.9692ZM20.6719 16.8423H21.3691C21.5605 16.8423 21.7178 16.7944 21.8408 16.6987C21.9639 16.603 22.0254 16.4731 22.0254 16.3091C22.0254 16.1724 21.9639 16.0562 21.8408 15.9604C21.7178 15.8647 21.5605 15.8169 21.3691 15.8169H20.6719C20.4805 15.8169 20.3164 15.8647 20.1797 15.9604C20.043 16.0562 19.9746 16.1724 19.9746 16.3091C19.9746 16.4731 20.043 16.603 20.1797 16.6987C20.3164 16.7944 20.4805 16.8423 20.6719 16.8423ZM8.69531 16.3091C8.69531 16.1724 8.63379 16.0562 8.51074 15.9604C8.3877 15.8647 8.23047 15.8169 8.03906 15.8169H7.3418C7.15039 15.8169 6.99316 15.8647 6.87012 15.9604C6.74707 16.0562 6.68555 16.1724 6.68555 16.3091C6.68555 16.4731 6.74707 16.603 6.87012 16.6987C6.99316 16.7944 7.15039 16.8423 7.3418 16.8423H8.03906C8.23047 16.8423 8.3877 16.7944 8.51074 16.6987C8.63379 16.603 8.69531 16.4731 8.69531 16.3091ZM4.96289 27.5884H0.65625C0.492188 27.5884 0.341797 27.6431 0.205078 27.7524C0.0683594 27.8618 0 27.9849 0 28.1216C0 28.2583 0.0683594 28.3745 0.205078 28.4702C0.341797 28.5659 0.492188 28.6138 0.65625 28.6138H4.96289C5.1543 28.6138 5.31836 28.5659 5.45508 28.4702C5.5918 28.3745 5.66016 28.2583 5.66016 28.1216C5.66016 27.9849 5.5918 27.8618 5.45508 27.7524C5.31836 27.6431 5.1543 27.5884 4.96289 27.5884ZM3.97852 30.1724H2.66602C2.50195 30.1724 2.3584 30.2476 2.23535 30.3979C2.1123 30.5483 2.05078 30.7329 2.05078 30.9517C2.05078 31.1431 2.1123 31.314 2.23535 31.4644C2.3584 31.6147 2.50195 31.6899 2.66602 31.6899H3.97852C4.16992 31.6899 4.32031 31.6147 4.42969 31.4644C4.53906 31.314 4.59375 31.1431 4.59375 30.9517C4.59375 30.7329 4.53906 30.5483 4.42969 30.3979C4.32031 30.2476 4.16992 30.1724 3.97852 30.1724Z" fill="#FC487F"/>
</g>
<defs>
<clipPath id="clip0_1_106">
<rect width="42" height="42" fill="white" transform="matrix(1 0 0 -1 0 42.1899)"/>
</clipPath>
</defs>
</svg>