<svg width="54" height="46" viewBox="0 0 54 46" fill="none" xmlns="http://www.w3.org/2000/svg">
<path d="M1.38 0.5H48.53C51.0208 0.5 53.04 2.5192 53.04 5.01V40.18C53.04 42.6708 51.0208 44.69 48.53 44.69H1.38V0.5Z" fill="#F42F77"/>
<path d="M1.38 0.5H48.53C51.0208 0.5 53.04 2.5192 53.04 5.01V40.18C53.04 42.6708 51.0208 44.69 48.53 44.69H1.38V0.5Z" stroke="#F42F77"/>
<g clip-path="url(#clip0_1_634)">
<path d="M36.0598 30.0783C36.2706 30.2658 36.2706 30.465 36.0598 30.6759L35.2868 31.4494C35.0759 31.6603 34.8768 31.6603 34.6894 31.4494L30.4378 27.1955C30.3441 27.1017 30.2973 27.008 30.2973 26.9142V26.422C28.9152 27.6173 27.3223 28.215 25.5186 28.215C23.504 28.215 21.7823 27.5002 20.3534 26.0705C18.9245 24.6408 18.21 22.9181 18.21 20.9025C18.21 18.8869 18.9245 17.1642 20.3534 15.7345C21.7823 14.3048 23.504 13.59 25.5186 13.59C27.5331 13.59 29.2549 14.3048 30.6838 15.7345C32.1127 17.1642 32.8272 18.8869 32.8272 20.9025C32.8272 22.7072 32.2298 24.3009 31.0351 25.6837H31.5271C31.6442 25.6837 31.7379 25.7306 31.8082 25.8244L36.0598 30.0783ZM21.548 24.8752C21.548 24.8752 21.8233 25.1505 22.3738 25.7013C22.9243 26.2521 23.9725 26.5275 25.5186 26.5275C27.0646 26.5275 28.3881 25.9767 29.4891 24.8752C30.5901 23.7736 31.1406 22.4494 31.1406 20.9025C31.1406 19.3556 30.5901 18.0314 29.4891 16.9298C28.3881 15.8283 27.0646 15.2775 25.5186 15.2775C23.9725 15.2775 22.649 15.8283 21.548 16.9298C20.4471 18.0314 19.8966 19.3556 19.8966 20.9025C19.8966 22.4494 20.4471 23.7736 21.548 24.8752Z" fill="white"/>
</g>
<defs>
<clipPath id="clip0_1_634">
<rect width="18.65" height="18" fill="white" transform="matrix(1 0 0 -1 17.88 31.59)"/>
</clipPath>
</defs>
</svg>
