<svg width="25" height="25" viewBox="0 0 25 25" fill="none" xmlns="http://www.w3.org/2000/svg">
<path d="M3.68707 6.35764V7.43607H14.0494V15.6181H10.6969C10.6343 15.3836 10.5367 15.1648 10.4038 14.9616C10.271 14.7584 10.1108 14.5865 9.92321 14.4459C9.73565 14.2896 9.52856 14.1723 9.30194 14.0942C9.07531 14.016 8.84478 13.977 8.61034 13.977C8.36027 13.977 8.12192 14.016 7.89529 14.0942C7.66866 14.1723 7.46157 14.2896 7.27402 14.4459C7.08647 14.5865 6.92627 14.7584 6.79342 14.9616C6.66057 15.1648 6.56288 15.3836 6.50037 15.6181H5.86737V12.8985H4.78895V16.7199H6.50037C6.56288 16.9544 6.66057 17.1732 6.79342 17.3764C6.92627 17.5796 7.08647 17.7515 7.27402 17.8921C7.46157 18.0484 7.66866 18.1657 7.89529 18.2438C8.12192 18.3219 8.36027 18.361 8.61034 18.361C8.84478 18.361 9.07531 18.3219 9.30194 18.2438C9.52856 18.1657 9.73565 18.0484 9.92321 17.8921C10.1108 17.7515 10.271 17.5796 10.4038 17.3764C10.5367 17.1732 10.6343 16.9544 10.6969 16.7199H15.2216C15.2841 16.9544 15.3818 17.1732 15.5146 17.3764C15.6475 17.5796 15.8077 17.7515 15.9952 17.8921C16.1828 18.0484 16.3938 18.1657 16.6282 18.2438C16.8627 18.3219 17.0971 18.361 17.3315 18.361C17.566 18.361 17.8004 18.3219 18.0349 18.2438C18.2693 18.1657 18.4803 18.0484 18.6679 17.8921C18.8554 17.7515 19.0156 17.5796 19.1485 17.3764C19.2813 17.1732 19.3712 16.9544 19.4181 16.7199H21.1529V12.2656L21.106 12.1718L20.0276 8.91305L19.9104 8.53794H15.1512V6.35764H3.68707ZM4.22629 8.53794V9.61637H9.14955V8.53794H4.22629ZM15.1512 9.61637H19.1133L20.0745 12.4062V15.6181H19.4415C19.379 15.3836 19.2813 15.1648 19.1485 14.9616C19.0156 14.7584 18.8554 14.5865 18.6679 14.4459C18.4803 14.2896 18.2732 14.1723 18.0466 14.0942C17.82 14.016 17.5816 13.977 17.3315 13.977C17.0971 13.977 16.8666 14.016 16.6399 14.0942C16.4133 14.1723 16.1984 14.2896 15.9952 14.4459C15.8077 14.5865 15.6475 14.7584 15.5146 14.9616C15.3818 15.1648 15.2919 15.3836 15.245 15.6181H15.1512V9.61637ZM4.78895 10.7182V11.7967H8.04768V10.7182H4.78895ZM8.61034 15.0788C8.70411 15.0788 8.8057 15.0945 8.91511 15.1257C9.02451 15.157 9.11829 15.2039 9.19644 15.2664C9.29021 15.3289 9.37227 15.3993 9.4426 15.4774C9.51293 15.5555 9.57154 15.6493 9.61843 15.7587C9.64969 15.8525 9.67314 15.9541 9.68876 16.0635C9.70439 16.1729 9.69658 16.2823 9.66532 16.3917C9.64969 16.4855 9.61452 16.5793 9.55982 16.673C9.50512 16.7668 9.44651 16.8528 9.38399 16.9309C9.30584 17.0091 9.21598 17.0755 9.11438 17.1302C9.01279 17.1849 8.91511 17.2201 8.82133 17.2357C8.71193 17.2513 8.60252 17.2552 8.49312 17.2474C8.38371 17.2396 8.28212 17.2123 8.18834 17.1654C8.07894 17.1341 7.98516 17.0833 7.90701 17.013C7.82887 16.9427 7.75853 16.8606 7.69602 16.7668C7.6335 16.6887 7.58661 16.5949 7.55535 16.4855C7.52409 16.3761 7.50846 16.2667 7.50846 16.1573C7.50846 16.0948 7.51628 16.0283 7.53191 15.958C7.54754 15.8877 7.56317 15.8212 7.57879 15.7587C7.61005 15.6806 7.64522 15.6142 7.68429 15.5595C7.72337 15.5047 7.77416 15.4461 7.83668 15.3836C7.88357 15.3367 7.93436 15.2938 7.98907 15.2547C8.04377 15.2156 8.11019 15.1804 8.18834 15.1492C8.25086 15.1336 8.31728 15.1179 8.38762 15.1023C8.45795 15.0867 8.53219 15.0788 8.61034 15.0788ZM17.3315 15.0788C17.4409 15.0788 17.5464 15.0945 17.648 15.1257C17.7496 15.157 17.8473 15.2039 17.9411 15.2664C18.0349 15.3289 18.113 15.3993 18.1755 15.4774C18.238 15.5555 18.2928 15.6493 18.3396 15.7587C18.3865 15.8525 18.4139 15.9541 18.4217 16.0635C18.4295 16.1729 18.4256 16.2823 18.41 16.3917C18.3787 16.4855 18.3396 16.5793 18.2928 16.673C18.2459 16.7668 18.1833 16.8528 18.1052 16.9309C18.0271 17.0091 17.9411 17.0755 17.8473 17.1302C17.7535 17.1849 17.6519 17.2201 17.5425 17.2357C17.4331 17.2513 17.3276 17.2552 17.226 17.2474C17.1245 17.2396 17.019 17.2123 16.9096 17.1654C16.8158 17.1341 16.7259 17.0833 16.6399 17.013C16.554 16.9427 16.4797 16.8606 16.4172 16.7668C16.3547 16.6887 16.3078 16.5949 16.2766 16.4855C16.2453 16.3761 16.2297 16.2667 16.2297 16.1573C16.2297 16.0948 16.2375 16.0283 16.2531 15.958C16.2687 15.8877 16.2922 15.8212 16.3234 15.7587C16.3547 15.6806 16.3899 15.6142 16.4289 15.5595C16.468 15.5047 16.511 15.4461 16.5579 15.3836C16.6048 15.3367 16.6595 15.2938 16.722 15.2547C16.7845 15.2156 16.847 15.1804 16.9096 15.1492C16.9721 15.1336 17.0385 15.1179 17.1088 15.1023C17.1792 15.0867 17.2534 15.0788 17.3315 15.0788Z" fill="#666666"/>
</svg>