<svg width="42" height="43" viewBox="0 0 42 43" fill="none" xmlns="http://www.w3.org/2000/svg">
<path d="M35.1094 36.6528C35.4102 36.4614 35.6904 36.2358 35.9502 35.976C36.21 35.7163 36.4219 35.4087 36.5859 35.0532C36.75 34.7251 36.8662 34.3764 36.9346 34.0073C37.0029 33.6382 37.0098 33.2759 36.9551 32.9204C36.9004 32.5376 36.7979 32.1753 36.6475 31.8335C36.4971 31.4917 36.2988 31.1841 36.0527 30.9106C35.8066 30.6372 35.5264 30.3979 35.2119 30.1928C34.8975 29.9878 34.5488 29.8442 34.166 29.7622C33.8105 29.6528 33.4482 29.605 33.0791 29.6186C32.71 29.6323 32.3477 29.7075 31.9922 29.8442C31.6367 29.9536 31.3086 30.1176 31.0078 30.3364C30.707 30.5551 30.4473 30.8149 30.2285 31.1157C29.9824 31.3891 29.7979 31.7036 29.6748 32.0591C29.5518 32.4145 29.4766 32.7837 29.4492 33.1665C29.4219 33.5219 29.4492 33.8842 29.5312 34.2534C29.6133 34.6225 29.75 34.9712 29.9414 35.2993C30.1875 35.7094 30.5088 36.0717 30.9053 36.3862C31.3018 36.7007 31.7461 36.9126 32.2383 37.0219C32.7031 37.1587 33.1885 37.1928 33.6943 37.1245C34.2002 37.0561 34.6719 36.8989 35.1094 36.6528ZM31.8281 31.0337C32.0742 30.8969 32.3271 30.7944 32.5869 30.726C32.8467 30.6577 33.1133 30.6372 33.3867 30.6645C33.6602 30.6645 33.9199 30.7124 34.166 30.8081C34.4121 30.9038 34.6445 31.0337 34.8633 31.1977C35.082 31.3618 35.2734 31.56 35.4375 31.7925C35.6016 32.0249 35.7246 32.2641 35.8066 32.5102C35.8887 32.7563 35.9365 33.0161 35.9502 33.2895C35.9639 33.563 35.9297 33.8364 35.8477 34.1098C35.793 34.3833 35.6904 34.6294 35.54 34.8481C35.3896 35.0669 35.2187 35.2719 35.0273 35.4634C34.8086 35.6548 34.5762 35.8051 34.3301 35.9145C34.084 36.0239 33.8242 36.0923 33.5508 36.1196C33.2773 36.1469 33.0107 36.1401 32.751 36.0991C32.4912 36.0581 32.2383 35.9829 31.9922 35.8735C31.7461 35.7368 31.5273 35.5796 31.3359 35.4018C31.1445 35.2241 30.9805 35.0122 30.8438 34.7661C30.6523 34.4653 30.5293 34.1303 30.4746 33.7612C30.4199 33.3921 30.4473 33.0298 30.5566 32.6743C30.6387 32.3188 30.7959 31.9975 31.0283 31.7104C31.2607 31.4233 31.5273 31.1977 31.8281 31.0337ZM15.5039 30.1313C15.1758 29.9399 14.8271 29.8032 14.458 29.7212C14.0889 29.6391 13.7266 29.6118 13.3711 29.6391C12.9883 29.6665 12.626 29.7417 12.2842 29.8647C11.9424 29.9878 11.6211 30.1723 11.3203 30.4184C11.0195 30.6372 10.7598 30.8969 10.541 31.1977C10.3223 31.4985 10.1582 31.8266 10.0488 32.1821C9.91211 32.5376 9.83691 32.8999 9.82324 33.269C9.80957 33.6382 9.85742 34.0005 9.9668 34.3559C10.0762 34.7387 10.2266 35.0874 10.418 35.4018C10.6094 35.7163 10.8418 35.9966 11.1152 36.2426C11.3887 36.4887 11.6963 36.687 12.0381 36.8374C12.3799 36.9878 12.7422 37.0903 13.125 37.145C13.4805 37.1997 13.8428 37.1928 14.2119 37.1245C14.5811 37.0561 14.9434 36.9399 15.2988 36.7759C15.627 36.6118 15.9277 36.3999 16.2012 36.1401C16.4746 35.8803 16.707 35.6001 16.8984 35.2993C17.1445 34.8618 17.2949 34.3901 17.3496 33.8842C17.4043 33.3784 17.377 32.893 17.2676 32.4282C17.1309 31.936 16.9121 31.4917 16.6113 31.0952C16.3105 30.6987 15.9414 30.3774 15.5039 30.1313ZM15.9961 34.7661C15.8594 35.0122 15.6885 35.2241 15.4834 35.4018C15.2783 35.5796 15.0527 35.7368 14.8066 35.8735C14.5879 35.9829 14.3418 36.0581 14.0684 36.0991C13.7949 36.1401 13.5215 36.1469 13.248 36.1196C12.9746 36.0923 12.7148 36.0239 12.4688 35.9145C12.2227 35.8051 12.0039 35.6548 11.8125 35.4634C11.5937 35.2719 11.416 35.0669 11.2793 34.8481C11.1426 34.6294 11.0332 34.3833 10.9512 34.1098C10.8965 33.8364 10.8691 33.563 10.8691 33.2895C10.8691 33.0161 10.9102 32.7563 10.9922 32.5102C11.1016 32.2641 11.2314 32.0249 11.3818 31.7925C11.5322 31.56 11.7168 31.3618 11.9355 31.1977C12.1543 31.0337 12.3936 30.9038 12.6533 30.8081C12.9131 30.7124 13.166 30.6645 13.4121 30.6645C13.6855 30.6372 13.959 30.6577 14.2324 30.726C14.5059 30.7944 14.752 30.8969 14.9707 31.0337C15.1348 31.1157 15.2852 31.2182 15.4219 31.3413C15.5586 31.4643 15.6816 31.5942 15.791 31.7309C15.9004 31.8676 15.9961 32.018 16.0781 32.1821C16.1602 32.3462 16.2285 32.5102 16.2832 32.6743C16.3105 32.8657 16.3311 33.0503 16.3447 33.228C16.3584 33.4057 16.3516 33.5766 16.3242 33.7407C16.2969 33.9321 16.2559 34.1098 16.2012 34.2739C16.1465 34.438 16.0781 34.602 15.9961 34.7661ZM5.37305 20.2466H19.3184L20.4668 22.2563C20.4121 22.4751 20.3916 22.7075 20.4053 22.9536C20.4189 23.1997 20.4668 23.4458 20.5488 23.6919L19.1543 26.0298C19.0449 26.0298 18.9287 26.0366 18.8057 26.0503C18.6826 26.0639 18.5664 26.0981 18.457 26.1528C18.3203 26.2075 18.2041 26.2759 18.1084 26.3579C18.0127 26.4399 17.9375 26.5356 17.8828 26.645L16.8574 28.0395C15.4355 27.1372 13.8564 26.8911 12.1201 27.3012C10.3838 27.7114 9.07813 28.6958 8.20312 30.2544C7.76562 30.9653 7.49219 31.7378 7.38281 32.5717C7.27344 33.4057 7.32812 34.2192 7.54688 35.0122C7.76563 35.8325 8.12793 36.5708 8.63379 37.227C9.13965 37.8833 9.74805 38.4165 10.459 38.8266C11.1973 39.2368 11.9766 39.4966 12.7969 39.6059C13.6172 39.7153 14.4238 39.6606 15.2168 39.4419C16.0371 39.2231 16.7754 38.8608 17.4316 38.355C18.0879 37.8491 18.6211 37.2407 19.0312 36.5298L23.0098 29.6801C23.0645 29.5708 23.1055 29.4477 23.1328 29.311C23.1602 29.1743 23.1738 29.0376 23.1738 28.9009C23.1738 28.7915 23.1465 28.6753 23.0918 28.5522C23.0371 28.4292 22.9824 28.313 22.9277 28.2036L23.4199 27.3423L23.9121 28.2036C23.8301 28.313 23.7686 28.4292 23.7275 28.5522C23.6865 28.6753 23.6523 28.7915 23.625 28.9009C23.625 29.0376 23.6387 29.1743 23.666 29.311C23.6934 29.4477 23.748 29.5708 23.8301 29.6801L27.7676 36.5298C28.0957 37.0766 28.4854 37.562 28.9365 37.9858C29.3877 38.4096 29.8867 38.7583 30.4336 39.0317C31.0078 39.3051 31.6025 39.4897 32.2178 39.5854C32.833 39.6811 33.4414 39.688 34.043 39.6059C34.6719 39.5239 35.2666 39.353 35.8271 39.0932C36.3877 38.8335 36.9004 38.4985 37.3652 38.0884C37.8301 37.6782 38.2266 37.2065 38.5547 36.6733C38.8828 36.1401 39.1289 35.5727 39.293 34.9712C39.4297 34.3696 39.4844 33.7544 39.457 33.1255C39.4297 32.4966 39.3203 31.895 39.1289 31.3208C38.9102 30.7192 38.6162 30.1655 38.2471 29.6596C37.8779 29.1538 37.4473 28.7231 36.9551 28.3676C36.4355 27.9848 35.8887 27.6909 35.3145 27.4858C34.7402 27.2807 34.1387 27.1645 33.5098 27.1372C32.8809 27.1098 32.2656 27.1714 31.6641 27.3217C31.0625 27.4721 30.4883 27.7114 29.9414 28.0395L28.957 26.645C28.875 26.5356 28.7861 26.4399 28.6904 26.3579C28.5947 26.2759 28.4922 26.2075 28.3828 26.1528C28.2734 26.0981 28.1572 26.0639 28.0342 26.0503C27.9111 26.0366 27.7812 26.0298 27.6445 26.0298L26.291 23.6919C26.3457 23.4458 26.3799 23.1997 26.3936 22.9536C26.4072 22.7075 26.3867 22.4751 26.332 22.2563L27.5215 20.2466H33.6328C33.8789 20.2466 34.1318 20.1919 34.3916 20.0825C34.6514 19.9731 34.8633 19.8227 35.0273 19.6313C35.2187 19.4399 35.3691 19.2212 35.4785 18.9751C35.5879 18.729 35.6426 18.4692 35.6426 18.1958V5.56296C35.6426 5.28952 35.5879 5.02976 35.4785 4.78366C35.3691 4.53757 35.2187 4.31882 35.0273 4.12741C34.8633 3.93601 34.6514 3.79245 34.3916 3.69675C34.1318 3.60104 33.8789 3.55319 33.6328 3.55319H5.37305C5.09961 3.55319 4.83984 3.60104 4.59375 3.69675C4.34766 3.79245 4.12891 3.93601 3.9375 4.12741C3.74609 4.31882 3.60254 4.53757 3.50684 4.78366C3.41113 5.02976 3.36328 5.28952 3.36328 5.56296V18.1958C3.36328 18.4692 3.41113 18.729 3.50684 18.9751C3.60254 19.2212 3.74609 19.4399 3.9375 19.6313C4.12891 19.8227 4.34766 19.9731 4.59375 20.0825C4.83984 20.1919 5.09961 20.2466 5.37305 20.2466ZM20.5078 20.2466H21.9844C21.793 20.3559 21.6152 20.479 21.4512 20.6157C21.2871 20.7524 21.1367 20.9165 21 21.1079L20.5078 20.2466ZM25.3887 22.8716C25.3887 23.063 25.3613 23.2544 25.3066 23.4458C25.252 23.6372 25.1699 23.8012 25.0605 23.938C24.9512 24.102 24.8213 24.2456 24.6709 24.3686C24.5205 24.4917 24.3496 24.5942 24.1582 24.6762C23.9941 24.7583 23.8096 24.8061 23.6045 24.8198C23.3994 24.8335 23.2012 24.8266 23.0098 24.7993C22.8184 24.7719 22.6406 24.7104 22.4766 24.6147C22.3125 24.519 22.1621 24.4028 22.0254 24.2661C21.8887 24.1294 21.7725 23.9721 21.6768 23.7944C21.5811 23.6167 21.5195 23.4321 21.4922 23.2407C21.4375 23.0493 21.4238 22.8579 21.4512 22.6665C21.4785 22.4751 21.5195 22.2837 21.5742 22.0923C21.6562 21.9282 21.7588 21.771 21.8818 21.6206C22.0049 21.4702 22.1484 21.3403 22.3125 21.2309C22.4766 21.1216 22.6543 21.0395 22.8457 20.9848C23.0371 20.9301 23.2285 20.9028 23.4199 20.9028C23.666 20.9028 23.9121 20.9507 24.1582 21.0464C24.4043 21.1421 24.623 21.2856 24.8145 21.477C25.0059 21.6411 25.1494 21.8462 25.2451 22.0923C25.3408 22.3384 25.3887 22.5981 25.3887 22.8716ZM22.1074 29.1469L18.1699 36.0376C17.9238 36.4204 17.6367 36.7759 17.3086 37.104C16.9805 37.4321 16.625 37.7055 16.2422 37.9243C15.832 38.1704 15.4082 38.355 14.9707 38.478C14.5332 38.601 14.082 38.6626 13.6172 38.6626C13.1523 38.6626 12.6943 38.601 12.2432 38.478C11.792 38.355 11.375 38.1704 10.9922 37.9243C10.582 37.7055 10.2129 37.4321 9.88477 37.104C9.55664 36.7759 9.2832 36.4067 9.06445 35.9966C8.8457 35.6137 8.6748 35.1967 8.55176 34.7456C8.42871 34.2944 8.36719 33.8364 8.36719 33.3716C8.36719 32.9341 8.42871 32.4897 8.55176 32.0385C8.6748 31.5874 8.8457 31.1567 9.06445 30.7466C9.31055 30.3637 9.59766 30.0083 9.92578 29.6801C10.2539 29.352 10.6094 29.0786 10.9922 28.8598C11.4023 28.6137 11.8262 28.436 12.2637 28.3266C12.7012 28.2173 13.1523 28.1626 13.6172 28.1626C14.1641 28.1626 14.6973 28.2446 15.2168 28.4087C15.7363 28.5727 16.2285 28.8188 16.6934 29.1469C16.7207 29.1743 16.748 29.1948 16.7754 29.2085C16.8027 29.2221 16.8301 29.229 16.8574 29.229C16.8848 29.2563 16.9189 29.27 16.96 29.27C17.001 29.27 17.0352 29.2563 17.0625 29.229C17.0898 29.229 17.124 29.2221 17.165 29.2085C17.2061 29.1948 17.2402 29.188 17.2676 29.188C17.2949 29.1606 17.3154 29.1333 17.3291 29.1059C17.3428 29.0786 17.3633 29.0512 17.3906 29.0239L18.7031 27.2602C18.7305 27.2055 18.792 27.1509 18.8877 27.0962C18.9834 27.0415 19.0723 27.0415 19.1543 27.0962L21.9844 28.7368C22.0117 28.7368 22.0322 28.7436 22.0459 28.7573C22.0596 28.771 22.0801 28.7915 22.1074 28.8188C22.1074 28.8188 22.1143 28.8325 22.1279 28.8598C22.1416 28.8872 22.1484 28.9145 22.1484 28.9419C22.1484 28.9419 22.1484 28.9555 22.1484 28.9829C22.1484 29.0102 22.1484 29.0376 22.1484 29.0649C22.1484 29.0649 22.1484 29.0786 22.1484 29.1059C22.1484 29.1333 22.1348 29.1469 22.1074 29.1469ZM22.0664 27.5884L20.0977 26.4399L21.082 24.7583C21.2734 24.977 21.4854 25.1684 21.7178 25.3325C21.9502 25.4966 22.2031 25.6196 22.4766 25.7016L22.8047 26.3169L22.0664 27.5884ZM28.1367 27.2602L29.4082 29.0239C29.4355 29.0512 29.4629 29.0786 29.4902 29.1059C29.5176 29.1333 29.5449 29.1606 29.5723 29.188C29.5996 29.188 29.627 29.1948 29.6543 29.2085C29.6816 29.2221 29.7227 29.229 29.7773 29.229C29.8047 29.2563 29.832 29.27 29.8594 29.27C29.8867 29.27 29.9141 29.2563 29.9414 29.229C29.9961 29.229 30.0371 29.2221 30.0645 29.2085C30.0918 29.1948 30.1191 29.1743 30.1465 29.1469C31.3496 28.2446 32.7236 27.9507 34.2686 28.2651C35.8135 28.5796 36.9688 29.4204 37.7344 30.7876C38.0898 31.3891 38.3154 32.0317 38.4111 32.7153C38.5068 33.3989 38.459 34.0825 38.2676 34.7661C38.1035 35.4223 37.8096 36.0307 37.3857 36.5913C36.9619 37.1518 36.4492 37.5962 35.8477 37.9243C35.2461 38.2798 34.5967 38.5053 33.8994 38.601C33.2021 38.6967 32.5254 38.6489 31.8691 38.4575C31.1855 38.2934 30.5703 37.9995 30.0234 37.5757C29.4766 37.1518 29.0254 36.6391 28.6699 36.0376L24.6914 29.1469C24.6914 29.1469 24.6846 29.1333 24.6709 29.1059C24.6572 29.0786 24.6504 29.0649 24.6504 29.0649C24.6504 29.0376 24.6504 29.0102 24.6504 28.9829C24.6504 28.9555 24.6504 28.9419 24.6504 28.9419C24.6777 28.9145 24.6914 28.8872 24.6914 28.8598C24.6914 28.8325 24.7051 28.8188 24.7324 28.8188C24.7324 28.7915 24.7393 28.771 24.7529 28.7573C24.7666 28.7436 24.7871 28.7368 24.8145 28.7368L27.6855 27.0962C27.7129 27.0688 27.7471 27.0551 27.7881 27.0551C27.8291 27.0551 27.877 27.0688 27.9316 27.0962C27.959 27.0962 27.9932 27.1098 28.0342 27.1372C28.0752 27.1645 28.1094 27.2055 28.1367 27.2602ZM26.7012 26.4399L24.7324 27.5884L23.748 25.8247C24.1309 25.7973 24.4932 25.688 24.835 25.4966C25.1768 25.3051 25.4707 25.0591 25.7168 24.7583L26.7012 26.4399ZM23.9121 19.9184L30.4746 8.51608C30.7207 8.73483 30.9189 8.98776 31.0693 9.27487C31.2197 9.56198 31.3223 9.85593 31.377 10.1567C31.4316 10.4848 31.4316 10.8061 31.377 11.1206C31.3223 11.435 31.2129 11.7426 31.0488 12.0434L25.8398 21.1079C25.5938 20.7798 25.3066 20.5132 24.9785 20.3081C24.6504 20.103 24.2949 19.9731 23.9121 19.9184ZM4.38867 5.56296C4.38867 5.42624 4.41602 5.29636 4.4707 5.17331C4.52539 5.05026 4.59375 4.94772 4.67578 4.86569C4.75781 4.78366 4.86035 4.7153 4.9834 4.66062C5.10645 4.60593 5.23633 4.57858 5.37305 4.57858H33.6328C33.7695 4.57858 33.8926 4.60593 34.002 4.66062C34.1113 4.7153 34.2207 4.78366 34.3301 4.86569C34.4121 4.94772 34.4805 5.05026 34.5352 5.17331C34.5898 5.29636 34.6172 5.42624 34.6172 5.56296V18.1958C34.6172 18.3325 34.5898 18.4624 34.5352 18.5854C34.4805 18.7085 34.4121 18.8247 34.3301 18.9341C34.2207 19.0161 34.1113 19.0844 34.002 19.1391C33.8926 19.1938 33.7695 19.2212 33.6328 19.2212H28.0957L31.9512 12.5356C32.1973 12.0981 32.3545 11.6333 32.4229 11.1411C32.4912 10.6489 32.457 10.1567 32.3203 9.66452C32.1836 9.17233 31.9648 8.728 31.6641 8.33151C31.3633 7.93503 30.9941 7.61374 30.5566 7.36765C30.502 7.31296 30.4404 7.28562 30.3721 7.28562C30.3037 7.28562 30.2285 7.28562 30.1465 7.28562C30.0918 7.31296 30.0371 7.34714 29.9824 7.38815C29.9277 7.42917 29.8867 7.47702 29.8594 7.53171L23.1328 19.2212H5.37305C5.23633 19.2212 5.10645 19.1938 4.9834 19.1391C4.86035 19.0844 4.75781 19.0161 4.67578 18.9341C4.59375 18.8247 4.52539 18.7085 4.4707 18.5854C4.41602 18.4624 4.38867 18.3325 4.38867 18.1958V5.56296ZM9.10547 17.5395C9.10547 17.6216 9.11914 17.6899 9.14648 17.7446C9.17383 17.7993 9.20117 17.854 9.22852 17.9087C9.2832 17.9633 9.34473 18.0044 9.41309 18.0317C9.48145 18.0591 9.54297 18.0727 9.59766 18.0727H10.1719C10.2539 18.0727 10.3223 18.0591 10.377 18.0317C10.4316 18.0044 10.4863 17.9633 10.541 17.9087C10.5957 17.854 10.6367 17.7993 10.6641 17.7446C10.6914 17.6899 10.7051 17.6216 10.7051 17.5395C10.7051 17.4848 10.6914 17.4233 10.6641 17.355C10.6367 17.2866 10.5957 17.2251 10.541 17.1704C10.4863 17.143 10.4316 17.1157 10.377 17.0883C10.3223 17.061 10.2539 17.0473 10.1719 17.0473H9.59766C9.54297 17.0473 9.48145 17.061 9.41309 17.0883C9.34473 17.1157 9.2832 17.143 9.22852 17.1704C9.20117 17.2251 9.17383 17.2866 9.14648 17.355C9.11914 17.4233 9.10547 17.4848 9.10547 17.5395ZM12.6328 17.5395C12.6328 17.6216 12.6465 17.6899 12.6738 17.7446C12.7012 17.7993 12.7422 17.854 12.7969 17.9087C12.8516 17.9633 12.9062 18.0044 12.9609 18.0317C13.0156 18.0591 13.084 18.0727 13.166 18.0727H13.7402C13.7949 18.0727 13.8564 18.0591 13.9248 18.0317C13.9932 18.0044 14.0547 17.9633 14.1094 17.9087C14.1367 17.854 14.1641 17.7993 14.1914 17.7446C14.2188 17.6899 14.2324 17.6216 14.2324 17.5395C14.2324 17.4848 14.2188 17.4233 14.1914 17.355C14.1641 17.2866 14.1367 17.2251 14.1094 17.1704C14.0547 17.143 13.9932 17.1157 13.9248 17.0883C13.8564 17.061 13.7949 17.0473 13.7402 17.0473H13.166C13.084 17.0473 13.0156 17.061 12.9609 17.0883C12.9062 17.1157 12.8516 17.143 12.7969 17.1704C12.7422 17.2251 12.7012 17.2866 12.6738 17.355C12.6465 17.4233 12.6328 17.4848 12.6328 17.5395ZM16.2012 17.5395C16.2012 17.6216 16.2148 17.6899 16.2422 17.7446C16.2695 17.7993 16.3105 17.854 16.3652 17.9087C16.3926 17.9633 16.4404 18.0044 16.5088 18.0317C16.5771 18.0591 16.6387 18.0727 16.6934 18.0727H17.2676C17.3496 18.0727 17.418 18.0591 17.4727 18.0317C17.5273 18.0044 17.582 17.9633 17.6367 17.9087C17.6914 17.854 17.7324 17.7993 17.7598 17.7446C17.7871 17.6899 17.8008 17.6216 17.8008 17.5395C17.8008 17.4848 17.7871 17.4233 17.7598 17.355C17.7324 17.2866 17.6914 17.2251 17.6367 17.1704C17.582 17.143 17.5273 17.1157 17.4727 17.0883C17.418 17.061 17.3496 17.0473 17.2676 17.0473H16.6934C16.6387 17.0473 16.5771 17.061 16.5088 17.0883C16.4404 17.1157 16.3926 17.143 16.3652 17.1704C16.3105 17.2251 16.2695 17.2866 16.2422 17.355C16.2148 17.4233 16.2012 17.4848 16.2012 17.5395ZM19.7695 17.5395C19.7695 17.6216 19.7764 17.6899 19.79 17.7446C19.8037 17.7993 19.8379 17.854 19.8926 17.9087C19.9473 17.9633 20.0088 18.0044 20.0771 18.0317C20.1455 18.0591 20.207 18.0727 20.2617 18.0727H20.8359C20.918 18.0727 20.9863 18.0591 21.041 18.0317C21.0957 18.0044 21.1504 17.9633 21.2051 17.9087C21.2598 17.854 21.3008 17.7993 21.3281 17.7446C21.3555 17.6899 21.3691 17.6216 21.3691 17.5395C21.3691 17.4848 21.3555 17.4233 21.3281 17.355C21.3008 17.2866 21.2598 17.2251 21.2051 17.1704C21.1504 17.143 21.0957 17.1157 21.041 17.0883C20.9863 17.061 20.918 17.0473 20.8359 17.0473H20.2617C20.207 17.0473 20.1455 17.061 20.0771 17.0883C20.0088 17.1157 19.9473 17.143 19.8926 17.1704C19.8379 17.2251 19.8037 17.2866 19.79 17.355C19.7764 17.4233 19.7695 17.4848 19.7695 17.5395ZM22.1484 15.4887C22.2031 15.5161 22.2646 15.5366 22.333 15.5503C22.4014 15.5639 22.4629 15.5571 22.5176 15.5298C22.5723 15.5024 22.627 15.4682 22.6816 15.4272C22.7363 15.3862 22.791 15.3383 22.8457 15.2837L23.1328 14.7915C23.1602 14.7641 23.1738 14.7368 23.1738 14.7094C23.1738 14.6821 23.1875 14.6548 23.2148 14.6274C23.2148 14.6001 23.2148 14.5659 23.2148 14.5249C23.2148 14.4839 23.2012 14.4497 23.1738 14.4223C23.1738 14.395 23.167 14.3676 23.1533 14.3403C23.1396 14.313 23.1191 14.2856 23.0918 14.2583C23.0918 14.2309 23.0781 14.2036 23.0508 14.1762C23.0234 14.1489 22.9961 14.1216 22.9688 14.0942C22.9414 14.0942 22.9072 14.0874 22.8662 14.0737C22.8252 14.06 22.791 14.0532 22.7637 14.0532C22.7363 14.0258 22.7021 14.019 22.6611 14.0327C22.6201 14.0464 22.5859 14.0532 22.5586 14.0532C22.5312 14.0532 22.5039 14.06 22.4766 14.0737C22.4492 14.0874 22.4219 14.1079 22.3945 14.1352C22.3672 14.1626 22.3398 14.1831 22.3125 14.1967C22.2852 14.2104 22.2715 14.2309 22.2715 14.2583L21.9434 14.7505C21.9434 14.8051 21.9365 14.8462 21.9229 14.8735C21.9092 14.9008 21.9023 14.9282 21.9023 14.9555C21.9023 14.9829 21.9023 15.0171 21.9023 15.0581C21.9023 15.0991 21.9023 15.1333 21.9023 15.1606C21.9023 15.188 21.9092 15.2153 21.9229 15.2426C21.9365 15.27 21.957 15.2973 21.9844 15.3247C22.0117 15.352 22.0391 15.3794 22.0664 15.4067C22.0938 15.4341 22.1211 15.4614 22.1484 15.4887ZM24.0762 11.2231L23.7891 11.7153C23.7617 11.7426 23.748 11.7768 23.748 11.8178C23.748 11.8589 23.7344 11.893 23.707 11.9204C23.707 11.9477 23.707 11.9819 23.707 12.0229C23.707 12.0639 23.7207 12.0981 23.748 12.1255C23.748 12.1528 23.7549 12.1801 23.7686 12.2075C23.7822 12.2348 23.8027 12.2622 23.8301 12.2895C23.8301 12.3169 23.8437 12.3442 23.8711 12.3716C23.8984 12.3989 23.9258 12.4126 23.9531 12.4126C23.9805 12.4399 24.0146 12.4604 24.0557 12.4741C24.0967 12.4878 24.1309 12.4946 24.1582 12.4946C24.1855 12.4946 24.2197 12.4946 24.2607 12.4946C24.3018 12.4946 24.3359 12.4946 24.3633 12.4946C24.3906 12.4946 24.418 12.4809 24.4453 12.4536C24.4727 12.4262 24.5 12.4126 24.5273 12.4126C24.5547 12.3852 24.582 12.3579 24.6094 12.3305C24.6367 12.3032 24.6504 12.2758 24.6504 12.2485L24.9785 11.7563C24.9785 11.729 24.9854 11.7016 24.999 11.6743C25.0127 11.6469 25.0195 11.6196 25.0195 11.5923C25.0469 11.5376 25.0537 11.4966 25.04 11.4692C25.0264 11.4419 25.0195 11.4145 25.0195 11.3872C25.0195 11.3598 25.0127 11.3257 24.999 11.2846C24.9854 11.2436 24.9648 11.2094 24.9375 11.1821C24.9102 11.1548 24.8828 11.1342 24.8555 11.1206C24.8281 11.1069 24.8008 11.0864 24.7734 11.0591C24.7461 11.0317 24.7188 11.018 24.6914 11.018C24.6641 11.018 24.6367 11.0044 24.6094 10.977C24.582 10.977 24.5479 10.977 24.5068 10.977C24.4658 10.977 24.4316 10.9907 24.4043 11.018C24.377 11.018 24.3496 11.0249 24.3223 11.0385C24.2949 11.0522 24.2676 11.0727 24.2402 11.1001C24.2129 11.1001 24.1855 11.1137 24.1582 11.1411C24.1309 11.1684 24.1035 11.1958 24.0762 11.2231ZM25.7988 9.37741C25.8262 9.40476 25.8535 9.42526 25.8809 9.43894C25.9082 9.45261 25.9492 9.45944 26.0039 9.45944C26.0313 9.45944 26.0586 9.45944 26.0859 9.45944C26.1133 9.45944 26.1406 9.45944 26.168 9.45944C26.2227 9.4321 26.2637 9.41159 26.291 9.39792C26.3184 9.38425 26.3457 9.36374 26.373 9.3364C26.4004 9.3364 26.4209 9.32272 26.4346 9.29538C26.4482 9.26804 26.4687 9.24069 26.4961 9.21335L26.7832 8.72116C26.8105 8.69382 26.8311 8.66647 26.8447 8.63913C26.8584 8.61179 26.8652 8.57077 26.8652 8.51608C26.8652 8.48874 26.8652 8.4614 26.8652 8.43405C26.8652 8.40671 26.8652 8.36569 26.8652 8.31101C26.8379 8.28366 26.8174 8.25632 26.8037 8.22897C26.79 8.20163 26.7832 8.17429 26.7832 8.14694C26.7559 8.1196 26.7285 8.09226 26.7012 8.06491C26.6738 8.03757 26.6465 8.0239 26.6191 8.0239C26.5918 7.99655 26.5645 7.97604 26.5371 7.96237C26.5098 7.9487 26.4688 7.94187 26.4141 7.94187C26.3867 7.94187 26.3594 7.94187 26.332 7.94187C26.3047 7.94187 26.2773 7.94187 26.25 7.94187C26.1953 7.96921 26.1543 7.98972 26.127 8.00339C26.0996 8.01706 26.0723 8.0239 26.0449 8.0239C26.0176 8.05124 25.9971 8.07858 25.9834 8.10593C25.9697 8.13327 25.9492 8.16062 25.9219 8.18796L25.6348 8.68015C25.5801 8.73483 25.5527 8.79636 25.5527 8.86472C25.5527 8.93308 25.5527 8.9946 25.5527 9.04929C25.5801 9.13132 25.6143 9.19968 25.6553 9.25437C25.6963 9.30905 25.7441 9.35007 25.7988 9.37741ZM26.7422 6.75241H27.3164C27.3711 6.75241 27.4326 6.73874 27.501 6.7114C27.5693 6.68405 27.6172 6.64304 27.6445 6.58835C27.6992 6.56101 27.7402 6.51315 27.7676 6.44479C27.7949 6.37644 27.8086 6.30124 27.8086 6.21921C27.8086 6.16452 27.7949 6.103 27.7676 6.03464C27.7402 5.96628 27.6992 5.91843 27.6445 5.89108C27.6172 5.8364 27.5693 5.79538 27.501 5.76804C27.4326 5.74069 27.3711 5.72702 27.3164 5.72702H26.7422C26.6602 5.72702 26.585 5.74069 26.5166 5.76804C26.4482 5.79538 26.4004 5.8364 26.373 5.89108C26.3184 5.91843 26.2773 5.96628 26.25 6.03464C26.2227 6.103 26.209 6.16452 26.209 6.21921C26.209 6.30124 26.2227 6.37644 26.25 6.44479C26.2773 6.51315 26.3184 6.56101 26.373 6.58835C26.4004 6.64304 26.4482 6.68405 26.5166 6.7114C26.585 6.73874 26.6602 6.75241 26.7422 6.75241ZM23.1738 6.75241H23.748C23.8027 6.75241 23.8643 6.73874 23.9326 6.7114C24.001 6.68405 24.0625 6.64304 24.1172 6.58835C24.1719 6.56101 24.2061 6.51315 24.2197 6.44479C24.2334 6.37644 24.2402 6.30124 24.2402 6.21921C24.2402 6.16452 24.2334 6.103 24.2197 6.03464C24.2061 5.96628 24.1719 5.91843 24.1172 5.89108C24.0625 5.8364 24.001 5.79538 23.9326 5.76804C23.8643 5.74069 23.8027 5.72702 23.748 5.72702H23.1738C23.0918 5.72702 23.0234 5.74069 22.9688 5.76804C22.9141 5.79538 22.8594 5.8364 22.8047 5.89108C22.75 5.91843 22.709 5.96628 22.6816 6.03464C22.6543 6.103 22.6406 6.16452 22.6406 6.21921C22.6406 6.30124 22.6543 6.37644 22.6816 6.44479C22.709 6.51315 22.75 6.56101 22.8047 6.58835C22.8594 6.64304 22.9141 6.68405 22.9688 6.7114C23.0234 6.73874 23.0918 6.75241 23.1738 6.75241ZM19.6055 6.75241H20.1797C20.2617 6.75241 20.3301 6.73874 20.3848 6.7114C20.4395 6.68405 20.4941 6.64304 20.5488 6.58835C20.6035 6.56101 20.6445 6.51315 20.6719 6.44479C20.6992 6.37644 20.7129 6.30124 20.7129 6.21921C20.7129 6.16452 20.6992 6.103 20.6719 6.03464C20.6445 5.96628 20.6035 5.91843 20.5488 5.89108C20.4941 5.8364 20.4395 5.79538 20.3848 5.76804C20.3301 5.74069 20.2617 5.72702 20.1797 5.72702H19.6055C19.5508 5.72702 19.4893 5.74069 19.4209 5.76804C19.3525 5.79538 19.3047 5.8364 19.2773 5.89108C19.2227 5.91843 19.1816 5.96628 19.1543 6.03464C19.127 6.103 19.1133 6.16452 19.1133 6.21921C19.1133 6.30124 19.127 6.37644 19.1543 6.44479C19.1816 6.51315 19.2227 6.56101 19.2773 6.58835C19.3047 6.64304 19.3525 6.68405 19.4209 6.7114C19.4893 6.73874 19.5508 6.75241 19.6055 6.75241ZM16.0781 6.75241H16.6523C16.707 6.75241 16.7686 6.73874 16.8369 6.7114C16.9053 6.68405 16.9668 6.64304 17.0215 6.58835C17.0488 6.56101 17.0762 6.51315 17.1035 6.44479C17.1309 6.37644 17.1445 6.30124 17.1445 6.21921C17.1445 6.16452 17.1309 6.103 17.1035 6.03464C17.0762 5.96628 17.0488 5.91843 17.0215 5.89108C16.9668 5.8364 16.9053 5.79538 16.8369 5.76804C16.7686 5.74069 16.707 5.72702 16.6523 5.72702H16.0781C15.9961 5.72702 15.9277 5.74069 15.873 5.76804C15.8184 5.79538 15.7637 5.8364 15.709 5.89108C15.6543 5.91843 15.6133 5.96628 15.5859 6.03464C15.5586 6.103 15.5449 6.16452 15.5449 6.21921C15.5449 6.30124 15.5586 6.37644 15.5859 6.44479C15.6133 6.51315 15.6543 6.56101 15.709 6.58835C15.7637 6.64304 15.8184 6.68405 15.873 6.7114C15.9277 6.73874 15.9961 6.75241 16.0781 6.75241ZM12.5098 6.75241H13.084C13.1387 6.75241 13.2002 6.73874 13.2686 6.7114C13.3369 6.68405 13.3984 6.64304 13.4531 6.58835C13.5078 6.56101 13.542 6.51315 13.5557 6.44479C13.5693 6.37644 13.5762 6.30124 13.5762 6.21921C13.5762 6.16452 13.5693 6.103 13.5557 6.03464C13.542 5.96628 13.5078 5.91843 13.4531 5.89108C13.3984 5.8364 13.3369 5.79538 13.2686 5.76804C13.2002 5.74069 13.1387 5.72702 13.084 5.72702H12.5098C12.4551 5.72702 12.3936 5.74069 12.3252 5.76804C12.2568 5.79538 12.1953 5.8364 12.1406 5.89108C12.0859 5.91843 12.0518 5.96628 12.0381 6.03464C12.0244 6.103 12.0176 6.16452 12.0176 6.21921C12.0176 6.30124 12.0244 6.37644 12.0381 6.44479C12.0518 6.51315 12.0859 6.56101 12.1406 6.58835C12.1953 6.64304 12.2568 6.68405 12.3252 6.7114C12.3936 6.73874 12.4551 6.75241 12.5098 6.75241ZM8.94141 6.75241H9.51562C9.59766 6.75241 9.66602 6.73874 9.7207 6.7114C9.77539 6.68405 9.83008 6.64304 9.88477 6.58835C9.93945 6.56101 9.98047 6.51315 10.0078 6.44479C10.0352 6.37644 10.0488 6.30124 10.0488 6.21921C10.0488 6.16452 10.0352 6.103 10.0078 6.03464C9.98047 5.96628 9.93945 5.91843 9.88477 5.89108C9.83008 5.8364 9.77539 5.79538 9.7207 5.76804C9.66602 5.74069 9.59766 5.72702 9.51562 5.72702H8.94141C8.88672 5.72702 8.8252 5.74069 8.75684 5.76804C8.68848 5.79538 8.64063 5.8364 8.61328 5.89108C8.55859 5.91843 8.51758 5.96628 8.49023 6.03464C8.46289 6.103 8.44922 6.16452 8.44922 6.21921C8.44922 6.30124 8.46289 6.37644 8.49023 6.44479C8.51758 6.51315 8.55859 6.56101 8.61328 6.58835C8.64063 6.64304 8.68848 6.68405 8.75684 6.7114C8.8252 6.73874 8.88672 6.75241 8.94141 6.75241ZM6.0293 7.40866C6.11133 7.40866 6.17969 7.39499 6.23438 7.36765C6.28906 7.3403 6.34375 7.29929 6.39844 7.2446C6.45313 7.18991 6.49414 7.13522 6.52148 7.08054C6.54883 7.02585 6.5625 6.95749 6.5625 6.87546V6.30124C6.5625 6.24655 6.54883 6.18503 6.52148 6.11667C6.49414 6.04831 6.45313 5.98679 6.39844 5.9321C6.34375 5.90476 6.28906 5.87741 6.23438 5.85007C6.17969 5.82272 6.11133 5.80905 6.0293 5.80905C5.97461 5.80905 5.91309 5.82272 5.84473 5.85007C5.77637 5.87741 5.72852 5.90476 5.70117 5.9321C5.64648 5.98679 5.60547 6.04831 5.57812 6.11667C5.55078 6.18503 5.53711 6.24655 5.53711 6.30124V6.87546C5.53711 6.95749 5.55078 7.02585 5.57812 7.08054C5.60547 7.13522 5.64648 7.18991 5.70117 7.2446C5.72852 7.29929 5.77637 7.3403 5.84473 7.36765C5.91309 7.39499 5.97461 7.40866 6.0293 7.40866ZM6.0293 10.936C6.11133 10.936 6.17969 10.9223 6.23438 10.895C6.28906 10.8676 6.34375 10.8403 6.39844 10.813C6.45313 10.7583 6.49414 10.6967 6.52148 10.6284C6.54883 10.56 6.5625 10.4985 6.5625 10.4438V9.8696C6.5625 9.78757 6.54883 9.71921 6.52148 9.66452C6.49414 9.60983 6.45313 9.55515 6.39844 9.50046C6.34375 9.44577 6.28906 9.40476 6.23438 9.37741C6.17969 9.35007 6.11133 9.3364 6.0293 9.3364C5.97461 9.3364 5.91309 9.35007 5.84473 9.37741C5.77637 9.40476 5.72852 9.44577 5.70117 9.50046C5.64648 9.55515 5.60547 9.60983 5.57812 9.66452C5.55078 9.71921 5.53711 9.78757 5.53711 9.8696V10.4438C5.53711 10.4985 5.55078 10.56 5.57812 10.6284C5.60547 10.6967 5.64648 10.7583 5.70117 10.813C5.72852 10.8403 5.77637 10.8676 5.84473 10.895C5.91309 10.9223 5.97461 10.936 6.0293 10.936ZM6.0293 14.5044C6.08398 14.5044 6.125 14.4975 6.15234 14.4839C6.17969 14.4702 6.20703 14.4633 6.23438 14.4633C6.26172 14.4633 6.28906 14.4497 6.31641 14.4223C6.34375 14.395 6.37109 14.3676 6.39844 14.3403C6.42578 14.313 6.44629 14.2856 6.45996 14.2583C6.47363 14.2309 6.49414 14.2036 6.52148 14.1762C6.52148 14.1489 6.52832 14.1216 6.54199 14.0942C6.55566 14.0669 6.5625 14.0258 6.5625 13.9712V13.3969C6.5625 13.3423 6.54883 13.2807 6.52148 13.2124C6.49414 13.144 6.45313 13.0962 6.39844 13.0688C6.34375 13.0141 6.28906 12.9731 6.23438 12.9458C6.17969 12.9184 6.11133 12.9048 6.0293 12.9048C5.97461 12.9048 5.91309 12.9184 5.84473 12.9458C5.77637 12.9731 5.72852 13.0141 5.70117 13.0688C5.64648 13.0962 5.60547 13.144 5.57812 13.2124C5.55078 13.2807 5.53711 13.3423 5.53711 13.3969V13.9712C5.53711 14.0532 5.55078 14.1284 5.57812 14.1967C5.60547 14.2651 5.64648 14.313 5.70117 14.3403C5.72852 14.395 5.77637 14.436 5.84473 14.4633C5.91309 14.4907 5.97461 14.5044 6.0293 14.5044ZM6.0293 18.0727H6.60352C6.68555 18.0727 6.76074 18.0591 6.8291 18.0317C6.89746 18.0044 6.94531 17.9633 6.97266 17.9087C7.02734 17.854 7.06836 17.7993 7.0957 17.7446C7.12305 17.6899 7.13672 17.6216 7.13672 17.5395C7.13672 17.4848 7.12305 17.4233 7.0957 17.355C7.06836 17.2866 7.02734 17.2251 6.97266 17.1704C6.94531 17.143 6.89746 17.1157 6.8291 17.0883C6.76074 17.061 6.68555 17.0473 6.60352 17.0473H6.5625V16.9653C6.5625 16.9106 6.54883 16.8491 6.52148 16.7807C6.49414 16.7124 6.45313 16.6508 6.39844 16.5962C6.34375 16.5415 6.28906 16.5073 6.23438 16.4936C6.17969 16.48 6.11133 16.4731 6.0293 16.4731C5.97461 16.4731 5.91309 16.48 5.84473 16.4936C5.77637 16.5073 5.72852 16.5415 5.70117 16.5962C5.64648 16.6508 5.60547 16.7124 5.57812 16.7807C5.55078 16.8491 5.53711 16.9106 5.53711 16.9653V17.5395C5.53711 17.6216 5.55078 17.6899 5.57812 17.7446C5.60547 17.7993 5.64648 17.854 5.70117 17.9087C5.72852 17.9633 5.77637 18.0044 5.84473 18.0317C5.91309 18.0591 5.97461 18.0727 6.0293 18.0727Z" fill="#FC487F"/>
</svg>