<svg width="24" height="26" viewBox="0 0 24 26" fill="none" xmlns="http://www.w3.org/2000/svg">
<path d="M20.4599 18.3884C20.2411 17.8882 19.9715 17.4194 19.6511 16.9817C19.3307 16.5441 18.9751 16.1377 18.5844 15.7626C18.178 15.3875 17.7443 15.0515 17.2833 14.7545C16.8222 14.4576 16.326 14.1997 15.7946 13.9809C15.7946 13.9809 15.7867 13.9809 15.7711 13.9809C16.4901 13.4807 17.0684 12.8478 17.506 12.0819C17.9436 11.3161 18.1624 10.4799 18.1624 9.57339C18.1624 8.82318 18.0139 8.11986 17.717 7.46342C17.4044 6.79136 16.9902 6.20916 16.4744 5.71684C15.9587 5.22451 15.3491 4.83768 14.6458 4.55635C13.9425 4.27502 13.1923 4.13436 12.3952 4.13436C11.6137 4.13436 10.8713 4.27502 10.168 4.55635C9.46465 4.83768 8.85119 5.22451 8.32761 5.71684C7.80402 6.20916 7.39375 6.79136 7.09679 7.46342C6.79983 8.11986 6.65135 8.82318 6.65135 9.57339C6.65135 10.4799 6.86626 11.3161 7.29606 12.0819C7.72587 12.8478 8.30807 13.4807 9.04265 13.9809C9.02702 13.9809 9.01921 13.9809 9.01921 13.9809C9.01921 13.9809 9.01139 13.9809 8.99576 13.9809C8.47999 14.1997 7.99157 14.4576 7.53051 14.7545C7.06944 15.0515 6.63572 15.3875 6.22936 15.7626C5.83862 16.1377 5.48305 16.5441 5.16265 16.9817C4.84225 17.4194 4.57264 17.8882 4.35383 18.3884C4.13502 18.8573 3.97091 19.3496 3.8615 19.8654C3.7521 20.3811 3.68958 20.8969 3.67395 21.4127C3.67395 21.4283 3.67395 21.44 3.67395 21.4478C3.67395 21.4556 3.68176 21.4674 3.69739 21.483C3.69739 21.483 3.7013 21.4908 3.70912 21.5064C3.71693 21.5221 3.72084 21.5299 3.72084 21.5299C3.73647 21.5455 3.74819 21.5572 3.756 21.5651C3.76382 21.5729 3.77554 21.5768 3.79117 21.5768C3.8068 21.5768 3.81852 21.5807 3.82634 21.5885C3.83415 21.5963 3.84587 21.6002 3.8615 21.6002H5.24471C5.30722 21.6002 5.35411 21.5807 5.38537 21.5416C5.41663 21.5025 5.43226 21.4596 5.43226 21.4127C5.46352 20.5687 5.65498 19.7638 6.00664 18.9979C6.3583 18.2321 6.84672 17.5444 7.4719 16.9348C8.12833 16.3097 8.88245 15.833 9.73425 15.5048C10.5861 15.1765 11.473 15.0124 12.3952 15.0124C13.3329 15.0124 14.2238 15.1765 15.0678 15.5048C15.9118 15.833 16.6698 16.3097 17.3419 16.9348C17.967 17.5444 18.4555 18.2321 18.8071 18.9979C19.1588 19.7638 19.3502 20.5687 19.3815 21.4127C19.3815 21.4596 19.3971 21.5025 19.4284 21.5416C19.4597 21.5807 19.4987 21.6002 19.5456 21.6002H20.9523C20.9679 21.6002 20.9796 21.5963 20.9874 21.5885C20.9952 21.5807 21.007 21.5768 21.0226 21.5768C21.0382 21.5768 21.0499 21.5729 21.0578 21.5651C21.0656 21.5572 21.0773 21.5455 21.0929 21.5299C21.0929 21.5299 21.0968 21.5221 21.1046 21.5064C21.1125 21.4908 21.1164 21.483 21.1164 21.483C21.132 21.4674 21.1398 21.4556 21.1398 21.4478C21.1398 21.44 21.1398 21.4283 21.1398 21.4127C21.1242 20.8813 21.0578 20.3616 20.9405 19.8536C20.8233 19.3457 20.6631 18.8573 20.4599 18.3884ZM12.3952 13.3479C11.8638 13.3479 11.3558 13.2502 10.8713 13.0548C10.3868 12.8595 9.95697 12.5899 9.58187 12.246C9.20676 11.8865 8.91762 11.4763 8.71443 11.0152C8.51125 10.5541 8.40966 10.0735 8.40966 9.57339C8.40966 9.07325 8.51125 8.59265 8.71443 8.13158C8.91762 7.67051 9.20676 7.26024 9.58187 6.90076C9.95697 6.54129 10.3868 6.26777 10.8713 6.08022C11.3558 5.89267 11.8638 5.79889 12.3952 5.79889C12.9422 5.79889 13.458 5.89267 13.9425 6.08022C14.427 6.26777 14.8568 6.54129 15.2319 6.90076C15.607 7.26024 15.8961 7.67051 16.0993 8.13158C16.3025 8.59265 16.4041 9.07325 16.4041 9.57339C16.4041 10.0735 16.3025 10.5541 16.0993 11.0152C15.8961 11.4763 15.607 11.8865 15.2319 12.246C14.8568 12.5899 14.427 12.8595 13.9425 13.0548C13.458 13.2502 12.9422 13.3479 12.3952 13.3479Z" fill="#666666"/>
</svg>
