<svg width="20" height="20" viewBox="0 0 20 20" fill="none" xmlns="http://www.w3.org/2000/svg">
<g clip-path="url(#clip0_1_641)">
<path d="M17.6211 2.965C18.5118 3.73192 19.1055 4.6411 19.4024 5.69254C19.6993 6.74397 19.7116 7.75211 19.4395 8.71695C19.1674 9.68179 18.6973 10.5106 18.0293 11.2033L11.5352 17.8087C11.1394 18.2046 10.6693 18.4025 10.125 18.4025C9.58077 18.4025 9.11071 18.2046 8.71488 17.8087L2.22074 11.2033C1.55277 10.5106 1.08272 9.67561 0.810584 8.69839C0.538449 7.72118 0.550818 6.71304 0.847693 5.67398C1.14457 4.63492 1.73832 3.73192 2.62894 2.965C3.69275 2.07437 4.94828 1.68472 6.39554 1.79605C7.84281 1.90738 9.08597 2.48257 10.125 3.52164C11.1641 2.48257 12.4073 1.90738 13.8545 1.79605C15.3018 1.68472 16.5573 2.07437 17.6211 2.965ZM16.7676 9.94156C17.4851 9.19937 17.8438 8.29019 17.8438 7.21402C17.8438 6.13785 17.3985 5.17919 16.5078 4.33804C15.7657 3.74429 14.906 3.48453 13.9287 3.55875C12.9515 3.63297 12.1166 4.0288 11.4239 4.74625L10.125 6.04507L8.82621 4.74625C8.1335 4.0288 7.29854 3.63297 6.32133 3.55875C5.34411 3.48453 4.48441 3.74429 3.74222 4.33804C2.8516 5.17919 2.40629 6.13785 2.40629 7.21402C2.40629 8.29019 2.76501 9.19937 3.48246 9.94156L10.0137 16.547C10.0879 16.646 10.1621 16.646 10.2364 16.547L16.7676 9.94156Z" fill="#666666"/>
</g>
<defs>
<clipPath id="clip0_1_641">
<rect width="19.19" height="19" fill="white" transform="matrix(1 0 0 -1 0.530029 19.59)"/>
</clipPath>
</defs>
</svg>
